<?xml version="1.0" standalone="no"?>
<!DOCTYPE svg PUBLIC "-//W3C//DTD SVG 1.1//EN" "http://www.w3.org/Graphics/SVG/1.1/DTD/svg11.dtd" >
<svg xmlns="http://www.w3.org/2000/svg">
<metadata></metadata>
<defs>
<font id="din-blackitalicaltregular" horiz-adv-x="1081" >
<font-face units-per-em="2048" ascent="1638" descent="-410" />
<missing-glyph horiz-adv-x="432" />
<glyph horiz-adv-x="0" />
<glyph horiz-adv-x="0" />
<glyph unicode="&#xd;" horiz-adv-x="512" />
<glyph unicode=" "  horiz-adv-x="432" />
<glyph unicode="&#x09;" horiz-adv-x="432" />
<glyph unicode="&#xa0;" horiz-adv-x="432" />
<glyph unicode="!" horiz-adv-x="712" d="M145 178q0 37 14.5 71t40 59.5t59.5 41t71 15.5t70.5 -15.5t59 -41t40 -59.5t14.5 -71q0 -76 -54 -130t-130 -54t-130.5 54t-54.5 130zM270 485l105 973h401l-276 -973h-230z" />
<glyph unicode="&#x22;" horiz-adv-x="950" d="M201 979l94 479h287l-97 -479h-284zM641 979l96 479h287l-96 -479h-287z" />
<glyph unicode="#" horiz-adv-x="1411" d="M49 0l125 356h-115l60 297h160l69 201h-121l60 297h166l112 324h342l-112 -324h186l113 324h344l-115 -324h115l-58 -297h-159l-70 -201h121l-60 -297h-165l-125 -356h-344l127 356h-187l-127 -356h-342zM621 653h186l70 201h-187z" />
<glyph unicode="$" horiz-adv-x="1249" d="M-31 193l246 215q53 -59 127 -86t166 -29l57 299l-49 12q-111 29 -178.5 72t-103 93t-48 100.5t-12.5 93.5q0 111 38 199.5t105.5 154t162.5 104.5t210 49l37 181h244l-35 -189q117 -10 211 -55t153 -123l-237 -209q-47 57 -105.5 74.5t-117.5 19.5l-54 -284l56 -15 q193 -49 266.5 -141t73.5 -237q0 -141 -51.5 -234.5t-129 -151t-170 -85t-174.5 -33.5l-43 -221h-243l41 227q-152 8 -254.5 54t-188.5 145zM514 1014q0 -45 32 -67.5t79 -35.5l49 260q-61 -12 -110.5 -53t-49.5 -104zM676 291q74 16 119 57t45 94q0 59 -30 84t-83 39z" />
<glyph unicode="%" horiz-adv-x="1691" d="M176 940q0 10 1 27.5t5 33.5l35 185q29 154 120 219t218 65q51 0 97 -15t81 -44t55.5 -73t20.5 -101q0 -10 -1 -27.5t-5 -33.5l-35 -185q-29 -154 -120 -219t-218 -65q-51 0 -97 15t-81 44t-55.5 73t-20.5 101zM283 0l952 1458h252l-950 -1458h-254zM403 969 q0 -16 10.5 -38t47.5 -22t56.5 24.5t25.5 59.5l35 181q2 10 3 17t1 17q0 16 -10.5 38t-47.5 22t-56 -24.5t-26 -59.5l-34 -180l-3.5 -17.5t-1.5 -17.5zM963 221q0 10 1 27.5t5 34.5l35 184q29 156 121 220.5t216 64.5q51 0 97.5 -15.5t81 -44t55 -73t20.5 -101.5 q0 -10 -1 -27.5t-5 -33.5l-35 -185q-29 -156 -120 -220t-217 -64q-51 0 -97.5 15t-81 44t-55 73t-20.5 101zM1190 250q0 -16 10 -38t47 -22t56.5 25t25.5 59l35 181q2 10 3 17t1 17q0 16 -10 38t-47 22t-56.5 -24.5t-25.5 -59.5l-35 -180q-2 -10 -3 -17.5t-1 -17.5z" />
<glyph unicode="&#x26;" horiz-adv-x="1396" d="M66 360q0 96 25.5 167t68.5 126.5t99 97.5t118 78q-47 74 -66.5 127.5t-19.5 118.5q0 53 18.5 122t67.5 129t137 102t227 42q129 0 202 -38.5t108.5 -93t44 -109.5t8.5 -86q0 -94 -58.5 -170t-136.5 -129l-118 -78l129 -201q41 39 67.5 94.5t42.5 108.5h301 q-35 -145 -97.5 -253.5t-154.5 -197.5l211 -317h-385l-69 104q-74 -55 -163 -85.5t-200 -30.5q-70 0 -141.5 16t-131 59t-97 115t-37.5 182zM383 410q0 -59 37 -98.5t96 -39.5q53 0 96 23.5t72 46.5l-172 266q-57 -33 -93 -84t-36 -114zM612 1081q0 -31 15.5 -60.5 t27.5 -45.5q8 4 17.5 10t17.5 12q10 6 21 13q41 27 64.5 55t23.5 63q0 33 -18.5 54.5t-55.5 21.5q-35 0 -57.5 -13t-34.5 -32.5t-16.5 -40t-4.5 -37.5z" />
<glyph unicode="'" horiz-adv-x="509" d="M201 979l94 479h289l-97 -479h-286z" />
<glyph unicode="(" horiz-adv-x="696" d="M86 195q0 23 5 70.5t15 94.5l154 770q16 76 37.5 152t69.5 141q43 59 99 113.5t128 114.5l180 -236q-23 -20 -64.5 -58t-66.5 -71q-20 -27 -36.5 -67.5t-28.5 -100.5l-156 -766q-8 -35 -12 -65.5t-4 -61.5q0 -41 20 -88t80 -117l-244 -213q-51 66 -86 116t-54.5 93 t-27.5 86t-8 93z" />
<glyph unicode=")" horiz-adv-x="696" d="M2 43q23 20 65 58t66 71q20 27 36.5 68t29.5 100l155 766q8 35 12.5 65.5t4.5 61.5q0 41 -20.5 88t-80.5 117l244 213q53 -66 87 -116t53.5 -93t27.5 -86t8 -92q0 -23 -5 -71t-15 -95l-154 -770q-16 -76 -37.5 -152t-68.5 -141q-43 -59 -99.5 -113.5t-128.5 -114.5z" />
<glyph unicode="*" horiz-adv-x="985" d="M178 1010l228 65l-185 148l144 159l167 -161l35 231l209 -41l-55 -229l217 86l72 -201l-228 -66l185 -147l-144 -160l-168 162l-34 -231l-209 41l55 229l-217 -86z" />
<glyph unicode="+" d="M76 430l59 299h293l64 320h301l-66 -320h299l-59 -299h-299l-64 -319h-299l64 319h-293z" />
<glyph unicode="," horiz-adv-x="577" d="M-47 -365l143 721h338l-92 -458z" />
<glyph unicode="-" horiz-adv-x="829" d="M80 455l59 299h639l-59 -299h-639z" />
<glyph unicode="." horiz-adv-x="600" d="M29 199q0 43 15 79.5t43 64.5t64.5 44t79.5 16t80 -16t64.5 -44t44 -64.5t16.5 -79.5t-16.5 -80t-44 -64.5t-64.5 -44t-80 -16.5t-79.5 16.5t-64.5 44t-43 64.5t-15 80z" />
<glyph unicode="/" horiz-adv-x="843" d="M-137 -152l907 1762h301l-905 -1762h-303z" />
<glyph unicode="0" d="M72 356q0 18 3 49t7 54l63 321q25 127 77 214t120 140.5t147.5 77t161.5 23.5q96 0 169 -29.5t122 -81t74.5 -118t25.5 -140.5q0 -18 -3 -49t-7 -53l-63 -322q-25 -127 -77 -214t-119.5 -140t-147.5 -76.5t-162 -23.5q-96 0 -169 29.5t-122 81t-74.5 118t-25.5 139.5z M389 383q0 -61 34 -84t71 -23q23 0 46 6.5t44.5 23t38 47t26.5 79.5l68 344q4 14 6 32t2 32q0 61 -34 83.5t-70 22.5q-23 0 -46.5 -6t-45 -22.5t-38 -47t-26.5 -79.5l-68 -345q-4 -14 -6 -31.5t-2 -31.5z" />
<glyph unicode="1" horiz-adv-x="925" d="M125 618l72 363l344 242h319l-244 -1223h-319l172 860z" />
<glyph unicode="2" horiz-adv-x="1130" d="M4 0l57 289l494 368q59 43 96 74t58.5 55.5t30 46t8.5 48.5q0 45 -26 75.5t-83 30.5q-49 0 -94 -29.5t-66 -115.5h-319q37 217 172 325.5t352 108.5q96 0 169 -31t121 -83t72.5 -120.5t24.5 -146.5q0 -55 -18.5 -106.5t-60.5 -105.5t-109.5 -113.5t-165.5 -131.5 l-203 -149h477l-59 -289h-928z" />
<glyph unicode="3" horiz-adv-x="1062" d="M-8 113q0 25 2 44t6 42h315q-4 -14 -4 -21.5v-23.5q0 -47 32 -80t99 -33q35 0 65 16.5t52.5 43t35.5 62.5t13 73q0 55 -30.5 95t-96.5 40h-45l56 278h45q35 0 63.5 16.5t51 43t34.5 58.5t12 62q0 59 -28.5 88t-69.5 29q-49 0 -98 -32.5t-66 -108.5h-319q47 219 181 324.5 t345 105.5q86 0 155.5 -29.5t119 -80t76 -116t26.5 -139.5q0 -104 -45 -199.5t-160 -162.5q59 -41 87 -97.5t28 -158.5q0 -111 -41 -203t-108.5 -158.5t-155.5 -102.5t-185 -36q-98 0 -181 24.5t-142.5 72t-92 114t-32.5 150.5z" />
<glyph unicode="4" horiz-adv-x="1212" d="M-10 70l59 303l633 954h352l-633 -954h256l48 237h303l-47 -237h145l-59 -303h-144l-63 -322h-303l63 322h-610z" />
<glyph unicode="5" horiz-adv-x="1112" d="M61 113q0 10 1 35.5t6 52.5h305q-2 -10 -2 -19.5v-19.5q0 -49 21.5 -85t82.5 -36q72 0 113 60.5t61 160.5q12 66 13 94q0 49 -22 85t-83 36q-68 0 -102.5 -34.5t-51.5 -69.5h-290l170 850h839l-57 -289h-551l-47 -240q45 31 88 41t92 10q90 0 154.5 -29.5t105.5 -77.5 t61.5 -110.5t20.5 -128.5q0 -31 -3 -69.5t-9 -67.5q-16 -92 -53 -193.5t-115 -179.5q-59 -61 -146.5 -99t-211.5 -38q-86 0 -158 26.5t-123 74t-80 114t-29 146.5z" />
<glyph unicode="6" horiz-adv-x="1085" d="M47 422q0 129 57.5 241.5t135.5 223.5l426 604h346l-430 -598q27 8 51 10t41 2q47 0 106.5 -17.5t110.5 -62.5t86 -121.5t35 -197.5q0 -111 -35 -205t-101.5 -163.5t-160.5 -109.5t-215 -40q-123 0 -209 39t-140.5 100t-79 139t-24.5 156zM365 442q0 -92 44 -130t99 -38 q33 0 65.5 13.5t59 39t44 65.5t17.5 91q0 92 -44 130t-99 38q-33 0 -65.5 -13t-59.5 -39t-44 -64.5t-17 -92.5z" />
<glyph unicode="7" horiz-adv-x="1142" d="M102 -236l703 1170h-336l-45 -223h-303l102 512h991l-57 -289l-702 -1170h-353z" />
<glyph unicode="8" horiz-adv-x="1120" d="M70 389q0 117 58 216.5t171 164.5q-33 35 -65.5 92.5t-32.5 161.5q0 90 34.5 171t98 142.5t156 97t204.5 35.5q92 0 169 -28.5t133.5 -81.5t87 -128t30.5 -167q0 -55 -17.5 -107.5t-46 -96.5t-65.5 -78.5t-78 -57.5q12 -12 30.5 -32.5t36 -51.5t29 -73t11.5 -97 q0 -104 -35 -192.5t-101.5 -153t-161.5 -101t-216 -36.5q-88 0 -167 24.5t-137.5 73.5t-92 125t-33.5 178zM393 416q0 -47 30 -93.5t97 -46.5q70 0 120 51.5t50 137.5q0 47 -29.5 93t-97.5 46q-70 0 -120 -51t-50 -137zM522 1008q0 -45 26.5 -85t86.5 -40q63 0 109.5 47 t46.5 127q0 45 -27 85t-86 40q-63 0 -109.5 -47.5t-46.5 -126.5z" />
<glyph unicode="9" horiz-adv-x="1085" d="M102 -268l430 598q-27 -8 -51 -10.5t-41 -2.5q-47 0 -106.5 17.5t-110.5 62.5t-86 123t-35 197q0 111 35 205t101.5 163.5t162 109.5t213.5 40q123 0 209 -39t140.5 -100.5t79 -139t24.5 -155.5q0 -129 -57.5 -242t-135.5 -223l-425 -604h-347zM420 739q0 -82 41 -125 t106 -43q31 0 64 13.5t58.5 39t43 65.5t17.5 91q0 82 -41 125t-107 43q-31 0 -63.5 -13t-58 -39t-43 -64.5t-17.5 -92.5z" />
<glyph unicode=":" horiz-adv-x="643" d="M76 199q0 43 15 79.5t43 64.5t65 44t80 16t79.5 -16t64.5 -44t44 -64.5t16 -79.5t-16 -80t-44 -64.5t-64.5 -44t-79.5 -16.5t-80 16.5t-65 44t-43 64.5t-15 80zM178 711q0 43 15.5 79.5t43 64.5t64.5 44t80 16t80 -16t64.5 -44t44 -64.5t16.5 -79.5t-16.5 -80t-44 -64.5 t-64.5 -44t-80 -16.5t-80 16.5t-64.5 44t-43 64.5t-15.5 80z" />
<glyph unicode=";" horiz-adv-x="643" d="M4 -365l143 721h340l-92 -458zM178 711q0 43 15.5 79.5t43 64.5t64.5 44t80 16t80 -16t64.5 -44t44 -64.5t16.5 -79.5t-16.5 -80t-44 -64.5t-64.5 -44t-80 -16.5t-80 16.5t-64.5 44t-43 64.5t-15.5 80z" />
<glyph unicode="&#x3c;" horiz-adv-x="2103" d="M375 186v1094h1093l297 -297l-874 4l946 -946l-223 -223l-946 946l4 -875z" />
<glyph unicode="=" d="M33 213l61 299h891l-61 -299h-891zM127 696l61 299h891l-59 -299h-893z" />
<glyph unicode="&#x3e;" horiz-adv-x="2103" d="M264 41l948 948l-874 -6l297 297h1091v-1092l-296 -297l6 875l-949 -948z" />
<glyph unicode="?" horiz-adv-x="1046" d="M217 1055q20 115 68.5 194.5t117 128.5t153.5 70.5t179 21.5q70 0 134.5 -23.5t114.5 -66.5t80 -106.5t30 -143.5q0 -111 -41 -192.5t-115 -159.5l-168 -178q-14 -14 -30.5 -38.5t-24.5 -57.5l-4 -19h-320l10 47q12 57 38 115t81 113l168 168q33 33 58.5 74.5t25.5 91.5 q0 37 -21.5 63.5t-62.5 26.5q-70 0 -105.5 -35t-45.5 -94h-320zM311 178q0 37 14.5 71t40 59.5t59.5 41t71 15.5t70.5 -15.5t59 -41t40 -59.5t14.5 -71q0 -76 -54.5 -130t-129.5 -54q-76 0 -130.5 54t-54.5 130z" />
<glyph unicode="@" horiz-adv-x="1529" d="M49 225q0 39 4 76t8 59l113 570q29 137 68 235.5t104 163.5q72 74 179.5 107.5t265.5 33.5h311q129 0 209 -32.5t127 -81.5q59 -59 76.5 -132t17.5 -128q0 -35 -6 -85t-15 -91l-184 -920h-289l17 84q-53 -51 -105.5 -73.5t-113.5 -22.5q-74 0 -128.5 22.5t-90 60.5 t-53 86t-17.5 97q0 41 7 89t21 120q14 68 26.5 125t30 105t44 88t67.5 77q53 47 115 63.5t125 16.5q72 0 123 -21.5t88 -66.5l14 74q4 23 7.5 42t3.5 40q0 82 -45 127q-53 51 -160 51h-238q-72 0 -117 -13.5t-84 -48.5q-49 -43 -68.5 -94t-29.5 -104l-110 -553 q-4 -16 -6.5 -32.5t-2.5 -45.5q0 -23 8.5 -47.5t30.5 -55.5l-252 -219q-59 72 -77.5 139.5t-18.5 114.5zM866 354q0 -100 88 -100q59 0 98.5 43t63.5 166q4 27 8 53t4 55q0 100 -88 101q-59 0 -98 -43t-63 -166q-4 -27 -8.5 -53.5t-4.5 -55.5z" />
<glyph unicode="A" horiz-adv-x="1273" d="M-106 0l794 1458h264l215 -1458h-346l-20 229h-432l-113 -229h-362zM508 506h266l-45 430z" />
<glyph unicode="B" horiz-adv-x="1269" d="M33 0l293 1458h551q184 0 285.5 -94t101.5 -248q0 -100 -46.5 -202.5t-173.5 -176.5q53 -41 88 -94t35 -151q0 -113 -38.5 -204t-107.5 -154.5t-161 -98.5t-198 -35h-629zM434 301h217q86 0 129 51t43 123q0 41 -23.5 77t-86.5 36h-221zM551 889h201q49 0 81.5 17.5 t51 42t26 52.5t7.5 48q0 37 -20.5 72.5t-84.5 35.5h-207z" />
<glyph unicode="C" d="M90 418q0 59 11.5 136t31.5 175q25 121 44.5 209t44 153.5t55 115.5t75.5 96q92 92 204 129.5t220 37.5q76 0 134.5 -15t102.5 -39.5t76.5 -56.5t57.5 -65l-254 -215q-37 55 -74 73.5t-76 18.5q-47 0 -80.5 -16t-60.5 -45q-18 -20 -33.5 -46t-30 -68t-29.5 -106.5 t-36 -160.5q-6 -31 -13 -69.5t-12.5 -76.5t-9.5 -75t-4 -66q0 -63 32 -109t116 -46q68 0 111.5 30.5t68.5 61.5l194 -240q-59 -59 -155 -105t-232 -46q-125 0 -215 37.5t-148.5 98t-87 137.5t-28.5 157z" />
<glyph unicode="D" horiz-adv-x="1265" d="M33 0l293 1458h489q203 0 322.5 -106.5t119.5 -307.5q0 -23 -2 -47t-7 -60t-14 -86t-24 -122q-27 -137 -48 -227t-44.5 -152.5t-54.5 -107.5t-78 -92q-150 -150 -416 -150h-536zM434 299h150q57 0 98 17.5t72 48.5q16 16 29.5 37.5t25.5 60.5t27.5 102.5t33.5 163.5 q25 127 34 191.5t9 91.5q0 84 -47 115.5t-108 31.5h-152z" />
<glyph unicode="E" horiz-adv-x="1189" d="M33 0l293 1458h940l-60 -299h-600l-55 -274h518l-59 -299h-518l-58 -287h613l-60 -299h-954z" />
<glyph unicode="F" horiz-adv-x="1159" d="M33 0l293 1458h940l-60 -299h-600l-57 -285h512l-60 -299h-514l-114 -575h-340z" />
<glyph unicode="G" horiz-adv-x="1241" d="M90 414q0 72 12.5 155.5t28.5 159.5q27 131 47.5 221t44 153.5t54 110t73.5 89.5q88 88 197.5 127.5t230.5 39.5q154 0 249 -55t155 -141l-262 -215q-31 53 -71 82.5t-95 29.5q-53 0 -91 -19t-59 -40q-25 -25 -43 -57.5t-32.5 -78.5t-28 -106.5t-29.5 -140.5 q-14 -68 -26.5 -149.5t-12.5 -139.5q0 -47 13.5 -76.5t34 -47t47 -23.5t53.5 -6q88 0 152.5 63.5t86.5 169.5l6 31h-202l53 283h541l-37 -197q-16 -86 -34 -154.5t-42.5 -126t-57 -105.5t-79.5 -95q-88 -88 -193.5 -128t-216.5 -40q-125 0 -214 37.5t-145.5 99t-82 137.5 t-25.5 152z" />
<glyph unicode="H" horiz-adv-x="1323" d="M33 0l293 1458h340l-113 -569h362l113 569h340l-293 -1458h-340l119 588h-362l-119 -588h-340z" />
<glyph unicode="I" horiz-adv-x="620" d="M33 0l293 1458h340l-293 -1458h-340z" />
<glyph unicode="J" horiz-adv-x="1003" d="M-82 158l244 209q29 -39 66.5 -59.5t90.5 -20.5q20 0 51 6t63 26.5t58.5 60.5t40.5 107l195 971h340l-197 -983q-33 -168 -106.5 -265t-156.5 -146.5t-162.5 -62.5t-127.5 -13q-147 0 -238 42t-161 128z" />
<glyph unicode="K" horiz-adv-x="1320" d="M33 0l293 1458h336l-105 -522l502 522h420l-590 -629l334 -829h-373l-238 610l-151 -141l-92 -469h-336z" />
<glyph unicode="L" horiz-adv-x="1130" d="M33 0l293 1458h340l-232 -1159h592l-59 -299h-934z" />
<glyph unicode="M" horiz-adv-x="1570" d="M33 0l293 1458h317l186 -643l455 643h334l-293 -1458h-340l143 719l-260 -361h-217l-133 361l-145 -719h-340z" />
<glyph unicode="N" horiz-adv-x="1366" d="M33 0l293 1458h282l312 -760l151 760h340l-293 -1458h-282l-310 758l-153 -758h-340z" />
<glyph unicode="O" horiz-adv-x="1245" d="M90 414q0 104 43 315q18 96 37.5 178t44.5 152.5t58.5 131t84.5 112.5q86 86 199 126.5t215 40.5q113 0 199 -35.5t143 -95t87 -136.5t30 -159q0 -102 -43 -315q-18 -94 -38 -177t-44.5 -153.5t-58 -131t-84.5 -111.5q-86 -86 -199 -127t-215 -41q-113 0 -199 35.5 t-143 95t-87 136.5t-30 159zM434 442q0 -76 41 -115.5t103 -39.5q43 0 80.5 19.5t66.5 49.5q16 18 30.5 44t29 68t29.5 105.5t34 155.5q6 31 13 70t12.5 76.5t9.5 74.5t4 66q0 76 -41 115.5t-103 39.5q-43 0 -80.5 -19t-66.5 -50q-16 -18 -30.5 -44t-29 -68t-29.5 -105.5 t-34 -155.5q-6 -31 -13 -69.5t-12.5 -76.5t-9.5 -75t-4 -66z" />
<glyph unicode="P" horiz-adv-x="1220" d="M33 0l293 1458h530q88 0 162 -27.5t128 -80t84 -127t30 -170.5q0 -94 -35 -186.5t-104.5 -164t-173 -116.5t-240.5 -45h-226l-108 -541h-340zM543 842h178q57 0 95 20.5t60.5 49t32 59.5t9.5 51q0 57 -28 96t-93 39h-191z" />
<glyph unicode="Q" horiz-adv-x="1245" d="M90 414q0 104 43 315q18 96 37.5 178t44.5 152.5t58.5 131t84.5 112.5q86 86 199 126.5t215 40.5q113 0 199 -35.5t143 -95t87 -136.5t30 -159q0 -102 -43 -315q-35 -168 -70 -295t-108 -225l88 -117l-199 -174l-96 127q-61 -29 -128 -43t-126 -14q-113 0 -199 35.5 t-143 95t-87 136.5t-30 159zM434 442q0 -76 41 -115.5t103 -39.5q10 0 18 1t18 3l-82 106l199 174l62 -79q12 41 25 99t30 138q6 31 13 70t12.5 76.5t9.5 74.5t4 66q0 76 -41 115.5t-103 39.5q-43 0 -80.5 -19t-66.5 -50q-16 -18 -30.5 -44t-29 -68t-29.5 -105.5t-34 -155.5 q-6 -31 -13 -69.5t-12.5 -76.5t-9.5 -75t-4 -66z" />
<glyph unicode="R" horiz-adv-x="1277" d="M33 0l293 1458h518q115 0 194.5 -33.5t129 -92t72 -135.5t22.5 -161q0 -61 -18.5 -124.5t-57.5 -122t-98.5 -108.5t-141.5 -85l195 -596h-373l-154 553h-129l-112 -553h-340zM541 836h178q61 0 100 20.5t61.5 49t31 59t8.5 53.5q0 68 -35 102.5t-99 34.5h-180z" />
<glyph unicode="S" horiz-adv-x="1157" d="M-29 188l246 215q53 -61 129 -87.5t172 -26.5q100 0 166 47t66 110q0 59 -32 84t-91 41l-111 29q-111 29 -177.5 73t-103 93t-48 99t-11.5 93q0 121 44 215.5t124 161t189.5 101t240.5 34.5q137 0 252 -46t184 -136l-237 -209q-47 57 -106.5 76t-131.5 19 q-51 0 -92 -14.5t-69.5 -38t-43 -51.5t-14.5 -56q0 -29 11.5 -47.5t28.5 -30.5t39.5 -19.5t45.5 -13.5l111 -29q96 -25 160.5 -59.5t104.5 -82.5t57.5 -110.5t17.5 -140.5q0 -131 -50.5 -225t-135.5 -153.5t-193.5 -87t-225.5 -27.5q-182 0 -300.5 46t-215.5 154z" />
<glyph unicode="T" horiz-adv-x="1140" d="M180 1157l62 301h1022l-62 -301h-334l-231 -1157h-340l231 1157h-348z" />
<glyph unicode="U" horiz-adv-x="1284" d="M104 414q0 29 4.5 66.5t8.5 60.5l184 917h340l-188 -936q-4 -18 -6.5 -39.5t-2.5 -42.5q0 -61 34 -106t112 -45q104 0 159.5 67.5t77.5 182.5l185 919h340l-191 -948q-29 -143 -88 -242.5t-139 -162t-173 -90t-192 -27.5q-104 0 -190 31.5t-146.5 88t-94.5 135.5t-34 171 z" />
<glyph unicode="V" horiz-adv-x="1169" d="M184 1458h336l78 -837l397 837h363l-744 -1458h-264z" />
<glyph unicode="W" horiz-adv-x="1769" d="M180 1458h350l29 -790l385 790h242l69 -790l334 790h361l-664 -1458h-276l-76 739l-381 -739h-277z" />
<glyph unicode="X" horiz-adv-x="1249" d="M-100 0l575 758l-274 700h381l133 -422l286 422h394l-541 -721l295 -737h-383l-152 459l-319 -459h-395z" />
<glyph unicode="Y" horiz-adv-x="1198" d="M168 1458h364l134 -545l329 545h375l-590 -874l-116 -584h-340l118 594z" />
<glyph unicode="Z" horiz-adv-x="1069" d="M-45 0l53 260l697 897h-506l59 301h930l-53 -260l-699 -897h533l-62 -301h-952z" />
<glyph unicode="[" horiz-adv-x="808" d="M4 -152l350 1762h582l-57 -287h-263l-237 -1188h283l-58 -287h-600z" />
<glyph unicode="\" horiz-adv-x="827" d="M207 1573h287l198 -1725h-286z" />
<glyph unicode="]" horiz-adv-x="808" d="M-49 -152l57 287h262l238 1188h-283l58 287h600l-351 -1762h-581z" />
<glyph unicode="^" horiz-adv-x="1269" d="M158 768l506 707h317l223 -707h-321l-115 362l-260 -362h-350z" />
<glyph unicode="_" d="M-180 -369l41 209h1083l-43 -209h-1081z" />
<glyph unicode="`" horiz-adv-x="972" d="M397 1608h320l20 -363h-186z" />
<glyph unicode="a" horiz-adv-x="1107" d="M51 272q0 18 1 40t4 52.5t11.5 75.5t20.5 111q37 186 73 292.5t95 166.5q63 63 133 83.5t143 20.5q76 0 135.5 -23.5t106.5 -82.5l19 94h307l-219 -1102h-308l19 92q-45 -49 -109.5 -76.5t-142.5 -27.5q-86 0 -142.5 29.5t-88 72.5t-45 92t-13.5 90zM385 385 q0 -12 1.5 -30.5t11.5 -36t29 -30t54 -12.5q66 0 103 37q33 33 52 91.5t36 146.5q8 39 15 87t7 79q0 12 -2 30.5t-11 36t-28.5 29.5t-54.5 12q-66 0 -102 -37q-33 -33 -52.5 -91t-35.5 -146q-8 -39 -15.5 -87t-7.5 -79z" />
<glyph unicode="b" horiz-adv-x="1107" d="M14 0l291 1458h320l-86 -436q39 43 101 67.5t130 24.5q53 0 106.5 -16.5t94.5 -52t66.5 -94t25.5 -142.5q0 -72 -35 -258q-29 -162 -63.5 -275.5t-108.5 -187.5q-49 -49 -119.5 -74.5t-152.5 -25.5q-100 0 -155.5 31.5t-88.5 76.5l-18 -96h-308zM422 385q0 -12 2 -30.5 t11 -36t28.5 -30t54.5 -12.5q90 0 127 68t64 207q8 39 15 87t7 79q0 12 -2 30.5t-11 36t-28.5 29.5t-54.5 12q-88 0 -125 -67.5t-66 -206.5q-8 -39 -15 -87t-7 -79z" />
<glyph unicode="c" horiz-adv-x="927" d="M61 379q0 84 17 172q35 184 99.5 294.5t142 171t161.5 79t156 18.5q123 0 202 -44t126 -103l-242 -213q-25 33 -52.5 52t-64.5 19q-63 0 -110 -49q-70 -74 -99 -225q-6 -33 -10 -63.5t-4 -65.5q0 -59 22.5 -102.5t88.5 -43.5q43 0 79.5 19.5t71.5 54.5l176 -231 q-66 -59 -159 -95t-203 -36q-68 0 -138.5 21.5t-128 68.5t-94.5 121.5t-37 179.5z" />
<glyph unicode="d" horiz-adv-x="1107" d="M51 276q0 57 10.5 125t26.5 150q37 186 73 292.5t95 166.5q63 63 132 83.5t140 20.5q74 0 134.5 -25.5t101.5 -74.5l88 444h319l-290 -1458h-308l19 92q-45 -49 -109.5 -76.5t-142.5 -27.5q-86 0 -142.5 29.5t-88 72.5t-45 93t-13.5 93zM385 385q0 -12 2 -30.5t11.5 -36 t28.5 -30t54 -12.5q90 0 127 68t64 207q8 39 15 87t7 79q0 12 -2 30.5t-11 36t-28.5 29.5t-54.5 12q-88 0 -125 -67.5t-65 -206.5q-8 -39 -15.5 -87t-7.5 -79z" />
<glyph unicode="e" horiz-adv-x="1091" d="M57 379q0 147 36 280.5t107.5 234.5t178 160.5t246.5 59.5q88 0 162.5 -26.5t130 -79t87 -126t31.5 -169.5q0 -63 -10 -131t-27 -133h-634q-2 -16 -3.5 -25.5t-1.5 -20.5q0 -66 40 -106.5t122 -40.5q70 0 127.5 26.5t108.5 75.5l160 -208q-84 -80 -198 -121t-237 -41 q-68 0 -142.5 17.5t-137 62.5t-104.5 119.5t-42 191.5zM406 659h321q4 12 5 28t1 26q0 63 -31.5 101t-95.5 38q-63 0 -116.5 -43t-83.5 -150z" />
<glyph unicode="f" horiz-adv-x="696" d="M47 0l162 809h-96l49 246h96l23 112q12 66 39.5 123.5t72.5 99.5t111.5 66.5t157.5 24.5h174l-54 -269h-100q-74 0 -90 -82l-14 -75h174l-50 -246h-174l-161 -809h-320z" />
<glyph unicode="g" horiz-adv-x="1091" d="M-39 -217l221 192q18 -20 53 -46.5t109 -26.5q53 0 91 16t64.5 43t42 58.5t21.5 62.5l17 80q-39 -43 -93.5 -67.5t-121.5 -24.5q-53 0 -106.5 17t-96.5 54t-69.5 92.5t-26.5 131.5q0 41 9 99t21 128q31 166 62.5 261t89.5 153q61 61 132 84.5t144 23.5q88 0 143.5 -30.5 t90.5 -77.5l18 96h307l-202 -1022q-41 -213 -178.5 -331t-358.5 -118q-127 0 -218 34t-165 118zM399 461q0 -45 21.5 -74t73.5 -29q35 0 60.5 10.5t44.5 37t34.5 72.5t30.5 116q10 49 13 81t3 48q0 45 -21.5 73.5t-72.5 28.5q-35 0 -60.5 -10t-45 -36.5t-35 -73 t-29.5 -115.5q-10 -49 -13.5 -81t-3.5 -48z" />
<glyph unicode="h" horiz-adv-x="1126" d="M14 0l291 1458h320l-86 -428q51 41 114.5 62.5t130.5 21.5q43 0 91.5 -15.5t90.5 -50t68.5 -93t26.5 -144.5q0 -35 -4 -66.5t-10 -60.5l-138 -684h-319l133 666q6 29 6 55q0 55 -30.5 79.5t-61.5 24.5q-55 0 -103.5 -33.5t-66.5 -125.5l-133 -666h-320z" />
<glyph unicode="i" horiz-adv-x="561" d="M14 0l211 1059h320l-211 -1059h-320zM242 1354q0 41 15 75.5t42 61.5t62.5 42t74.5 15q41 0 76 -15t61.5 -42t42 -61.5t15.5 -75.5q0 -39 -15.5 -75t-42 -62.5t-61.5 -42t-76 -15.5q-39 0 -74.5 15.5t-62.5 42t-42 62.5t-15 75z" />
<glyph unicode="j" horiz-adv-x="561" d="M-236 -369l56 271h104q35 0 57.5 23.5t28.5 56.5l215 1077h320l-219 -1102q-29 -147 -123 -236.5t-248 -89.5h-191zM242 1354q0 41 15 75.5t42 61.5t62.5 42t74.5 15q41 0 76 -15t61.5 -42t42 -61.5t15.5 -75.5q0 -39 -15.5 -75t-42 -62.5t-61.5 -42t-76 -15.5 q-39 0 -74.5 15.5t-62.5 42t-42 62.5t-15 75z" />
<glyph unicode="k" horiz-adv-x="1120" d="M14 0l291 1458h320l-148 -741l361 385h372l-475 -475l289 -627h-365l-165 428l-93 -82l-67 -346h-320z" />
<glyph unicode="l" horiz-adv-x="669" d="M63 256q0 49 9 90l221 1112h319l-221 -1110l-3 -15t-1 -16q0 -47 59 -47h117l-55 -270h-158q-137 0 -212 73.5t-75 182.5z" />
<glyph unicode="m" horiz-adv-x="1701" d="M14 0l219 1102h306l-19 -96q53 53 126 80.5t145 27.5q20 0 47.5 -5t57.5 -17.5t59.5 -36t52.5 -60.5q51 47 123.5 83t199.5 36q51 0 105.5 -17.5t98.5 -54t72.5 -94t28.5 -137.5q0 -39 -5 -70.5t-9 -56.5l-137 -684h-320l133 666q6 29 7 55q0 55 -31 79.5t-62 24.5 q-55 0 -103 -33.5t-67 -125.5l-133 -666h-319l133 666q6 29 6 55q0 55 -30.5 79.5t-61.5 24.5q-55 0 -103.5 -33.5t-66.5 -125.5l-133 -666h-320z" />
<glyph unicode="n" horiz-adv-x="1126" d="M14 0l219 1102h306l-19 -96q53 53 126 80.5t145 27.5q41 0 88 -15.5t88 -50t67.5 -93t26.5 -144.5q0 -35 -4 -66.5t-10 -60.5l-138 -684h-319l133 666q6 29 6 55q0 55 -30.5 79.5t-61.5 24.5q-55 0 -103.5 -33.5t-66.5 -125.5l-133 -666h-320z" />
<glyph unicode="o" horiz-adv-x="1069" d="M61 352q0 51 7.5 105.5t15.5 93.5q16 82 33.5 145.5t40 114.5t51.5 93t65 79q59 59 147.5 95t203.5 36q72 0 140.5 -22.5t122.5 -67.5t87 -113.5t33 -160.5q0 -51 -7.5 -105.5t-15.5 -93.5q-14 -82 -32.5 -145.5t-41 -114.5t-51.5 -93t-65 -79q-59 -59 -147.5 -95 t-203.5 -36q-72 0 -140 22.5t-122.5 67.5t-87.5 113.5t-33 160.5zM379 391q0 -53 24.5 -84t73.5 -31q61 0 98 37q35 33 55.5 92.5t37.5 145.5q16 82 19 116t3 44q0 53 -24.5 83.5t-73.5 30.5q-61 0 -98 -37q-35 -33 -55.5 -92t-37.5 -145q-16 -82 -19 -116t-3 -44z" />
<glyph unicode="p" horiz-adv-x="1107" d="M-57 -356l290 1458h308l-19 -92q45 49 109.5 76.5t142.5 27.5q86 0 142.5 -29.5t88 -72.5t45 -92.5t13.5 -90.5q0 -18 -1 -39.5t-4 -52t-11.5 -76t-20.5 -110.5q-37 -186 -72.5 -292.5t-95.5 -166.5q-63 -63 -132 -83.5t-140 -20.5q-74 0 -134.5 25.5t-101.5 74.5 l-88 -444h-319zM420 385q0 -12 2 -30.5t11 -36t28.5 -30t54.5 -12.5q90 0 127 68t64 207q8 39 15 87t7 79q0 12 -2 30.5t-11 36t-28.5 29.5t-54.5 12q-88 0 -125 -67.5t-66 -206.5q-8 -39 -15 -87t-7 -79z" />
<glyph unicode="q" horiz-adv-x="1107" d="M51 293q0 72 35 258q29 162 63.5 275.5t108.5 187.5q49 49 120 74.5t152 25.5q100 0 155.5 -31.5t88.5 -76.5l19 96h307l-291 -1458h-320l86 436q-39 -43 -101 -67.5t-130 -24.5q-53 0 -105.5 16t-94.5 52t-67.5 94.5t-25.5 142.5zM383 385q0 -12 2 -30.5t11.5 -36 t28.5 -30t54 -12.5q90 0 127 68t64 207q8 39 15 87t7 79q0 12 -2 30.5t-11 36t-28.5 29.5t-54.5 12q-88 0 -125 -67.5t-65 -206.5q-8 -39 -15.5 -87t-7.5 -79z" />
<glyph unicode="r" horiz-adv-x="919" d="M14 0l219 1102h308l-19 -94q43 49 114 77.5t148 28.5q78 0 132.5 -25.5t99.5 -78.5l-279 -248q-10 10 -32.5 35.5t-69.5 25.5q-55 0 -104.5 -43t-65.5 -121l-131 -659h-320z" />
<glyph unicode="s" horiz-adv-x="976" d="M-49 156l227 200q35 -41 88 -67.5t140 -26.5q86 0 129 27.5t43 62.5q0 29 -20.5 44.5t-55.5 21.5l-140 24q-137 25 -198.5 98.5t-61.5 155.5q0 84 29 157t88 132q66 66 163 97.5t214 31.5q123 0 212 -31.5t163 -111.5l-217 -193q-29 37 -84.5 55.5t-100.5 18.5 q-78 0 -112.5 -24.5t-34.5 -59.5q0 -47 67 -59l140 -25q147 -27 206.5 -106.5t59.5 -188.5q0 -94 -35 -162.5t-88 -117.5q-70 -66 -176.5 -93.5t-210.5 -27.5q-154 0 -257 44t-177 124z" />
<glyph unicode="t" horiz-adv-x="712" d="M98 256q0 31 2 52.5t6 37.5l93 465h-97l50 248h96l63 315h320l-64 -315h164l-49 -248h-164l-92 -467q-2 -6 -2 -14v-11q0 -51 63 -51h101l-53 -268h-150q-137 0 -212 73.5t-75 182.5z" />
<glyph unicode="u" horiz-adv-x="1126" d="M70 291q0 35 4 66.5t10 60.5l137 684h320l-133 -666q-6 -27 -7 -55q0 -55 31 -80t62 -25q55 0 103 34t67 126l133 666h319l-219 -1102h-305l18 96q-53 -53 -125.5 -80.5t-144.5 -27.5q-41 0 -88 15t-88 50t-67.5 93.5t-26.5 144.5z" />
<glyph unicode="v" horiz-adv-x="1013" d="M113 1102h315l61 -615l297 615h340l-604 -1102h-243z" />
<glyph unicode="w" horiz-adv-x="1511" d="M113 1102h317l23 -582l292 582h226l67 -582l240 582h340l-522 -1102h-242l-78 614l-317 -614h-250z" />
<glyph unicode="x" d="M-104 0l471 565l-254 537h368l105 -281l190 281h389l-444 -551l262 -551h-369l-112 293l-211 -293h-395z" />
<glyph unicode="y" horiz-adv-x="999" d="M-31 -369l60 291h65q45 0 72 25.5t51 72.5l47 89l-153 993h315l61 -615l297 615h336l-663 -1233q-16 -29 -39 -63.5t-51 -63.5q-59 -59 -126 -85t-153 -26h-119z" />
<glyph unicode="z" horiz-adv-x="968" d="M-43 0l49 238l502 575h-377l57 289h813l-47 -238l-510 -575h408l-57 -289h-838z" />
<glyph unicode="{" horiz-adv-x="1007" d="M92 606l58 287h112q74 0 117 37q23 18 35 49t22 74l47 231q12 63 41 131t90 119q47 41 114 58.5t138 17.5h269l-58 -287h-121q-49 0 -78.5 -7t-49 -25.5t-30 -49.5t-20.5 -78l-47 -229q-10 -53 -30.5 -89t-45 -58.5t-53.5 -35t-55 -16.5q41 -16 73.5 -53t32.5 -113 q0 -25 -6 -55l-43 -219q-4 -27 -7 -47.5t-3 -36.5q0 -47 30.5 -61.5t90.5 -14.5h145l-57 -287h-264q-76 0 -129.5 27t-87 67t-49 90t-15.5 95q0 27 1 40t5 28l51 251q18 88 -8 123q-27 37 -102 37h-113z" />
<glyph unicode="|" horiz-adv-x="708" d="M57 -152l353 1762h319l-352 -1762h-320z" />
<glyph unicode="}" horiz-adv-x="1007" d="M-49 -152l57 287h121q49 0 79 8.5t49 26.5t30.5 49t19.5 76l47 229q10 53 31 89t45.5 58.5t53 35t55.5 16.5q-41 16 -74 53t-33 113q0 25 6 55l43 219q4 27 7.5 47.5t3.5 36.5q0 47 -31 61.5t-90 14.5h-146l58 287h264q76 0 129 -27t87 -66.5t49 -89t15 -96.5 q0 -27 -1 -40t-5 -27l-51 -252q-18 -88 8 -123q29 -37 103 -37h112l-57 -287h-113q-74 0 -116 -37q-23 -18 -35.5 -48.5t-22.5 -73.5l-47 -232q-12 -63 -41 -131t-90 -119q-47 -41 -113.5 -58.5t-138.5 -17.5h-268z" />
<glyph unicode="~" horiz-adv-x="1257" d="M68 643q66 61 123 96t106 52.5t90 21.5t74 4q70 0 125 -18.5t102 -46.5q84 -51 162 -52q43 0 94 15.5t105 68.5l165 -215q-66 -61 -123 -96t-106 -52.5t-90 -21.5t-74 -4q-70 0 -125 18.5t-102 47.5q-84 51 -162 51q-43 0 -94 -15.5t-105 -68.5z" />
<glyph unicode="&#xa1;" horiz-adv-x="712" d="M-57 -356l276 972h230l-105 -972h-401zM205 924q0 76 54 130t130 54t130 -54t54 -130q0 -37 -14 -71t-39.5 -59.5t-59.5 -41t-71 -15.5t-70.5 15.5t-59.5 41t-40 59.5t-14 71z" />
<glyph unicode="&#xa2;" horiz-adv-x="999" d="M104 616q0 115 31 231t92.5 211t154.5 160.5t218 79.5l33 160h244l-33 -166q82 -23 137 -69.5t90 -94.5l-235 -194q-14 18 -37 37.5t-51 29.5l-105 -516q33 4 62.5 23.5t58.5 46.5l172 -211q-35 -31 -65.5 -53.5t-66.5 -41t-79 -32.5t-100 -27l-39 -190h-246l41 201 q-45 12 -93 45t-89 85t-68 122.5t-27 162.5zM426 643q0 -88 27 -125q10 -14 26 -22l101 508q-29 -8 -56.5 -42t-49 -85.5t-35 -111.5t-13.5 -122z" />
<glyph unicode="&#xa3;" horiz-adv-x="1163" d="M78 0l117 578h-117l47 243h117l32 158q23 102 62 191.5t106.5 156t168 105t241.5 38.5q121 0 217 -42t156 -121l-254 -220q-23 43 -57.5 62.5t-88.5 19.5q-59 0 -98 -19.5t-62.5 -49t-35 -64.5t-17.5 -65l-30 -150h186l-49 -243h-184l-56 -277h563l-59 -301h-905z" />
<glyph unicode="&#xa4;" horiz-adv-x="1191" d="M59 471l37 197h137l27 127h-139l37 196h145q29 111 64.5 180.5t97.5 131.5q92 92 203.5 129.5t220.5 37.5q76 0 134 -15t102 -39.5t77 -56.5t58 -65l-254 -215q-37 55 -74 73.5t-76 18.5q-80 0 -135 -55q-29 -29 -44 -60.5t-26 -64.5h240l-39 -196h-252l-27 -127h256 l-36 -197h-246q0 -10 -1 -17.5t-1 -15.5q0 -59 32.5 -105t116.5 -46q63 0 107.5 28.5t72.5 63.5l195 -240q-57 -59 -154.5 -105t-232.5 -46q-125 0 -215 37.5t-148.5 98t-87 137.5t-28.5 157v25.5t2 27.5h-146z" />
<glyph unicode="&#xa5;" horiz-adv-x="1198" d="M84 250l49 242h289l20 102l-30 102h-238l47 242h113l-166 520h364l134 -545l329 545h375l-350 -520h127l-49 -242h-242l-76 -112l-18 -92h295l-49 -242h-293l-51 -250h-340l51 250h-291z" />
<glyph unicode="&#xa6;" horiz-adv-x="708" d="M57 -152l144 717h319l-143 -717h-320zM266 893l144 717h319l-143 -717h-320z" />
<glyph unicode="&#xa7;" horiz-adv-x="1003" d="M-10 -68q0 16 1 33t3 35h291q-4 -35 15 -62.5t69 -27.5q35 0 71.5 22.5t36.5 87.5q0 29 -17.5 59t-74.5 56l-90 41q-98 45 -154.5 125t-56.5 186q0 121 57.5 223.5t163.5 161.5q-47 47 -66.5 99.5t-19.5 134.5q0 57 21.5 120.5t70.5 118t131 90t203 35.5q160 0 245 -83 t85 -220q0 -10 -1 -27.5t-3 -27.5h-281q4 55 -20.5 70.5t-59.5 15.5q-57 0 -78.5 -30.5t-21.5 -65.5q0 -29 19.5 -50.5t68.5 -43.5l92 -41q88 -39 148.5 -120t60.5 -192q0 -121 -50 -218t-165 -167q41 -37 68.5 -87t27.5 -152q0 -66 -21.5 -135.5t-73.5 -129t-139 -97.5 t-218 -38q-70 0 -131.5 21.5t-107.5 60.5t-72.5 95.5t-26.5 123.5zM377 526q0 -61 30.5 -79.5t57.5 -18.5q31 0 48 7t28 18q18 14 34.5 41.5t26.5 76.5q2 10 4 21.5t2 23.5q0 61 -30.5 80t-57.5 19q-31 0 -48 -7.5t-28 -17.5q-18 -14 -34.5 -41.5t-26.5 -77.5q-2 -10 -4 -21 t-2 -24z" />
<glyph unicode="&#xa8;" horiz-adv-x="972" d="M268 1384q0 66 45 111t111 45t111 -45t45 -111t-45.5 -110.5t-110.5 -44.5q-66 0 -111 45t-45 110zM725 1384q0 66 45 111t111 45t110.5 -45t44.5 -111t-45 -110.5t-110 -44.5q-66 0 -111 45t-45 110z" />
<glyph unicode="&#xa9;" horiz-adv-x="1599" d="M135 729q0 145 55.5 274.5t150.5 224.5t224 150.5t275 55.5q145 0 274 -55.5t224.5 -150.5t150.5 -224.5t55 -274.5t-55 -274t-150.5 -224.5t-224.5 -150.5t-274 -55t-274.5 55t-224.5 150.5t-150.5 224.5t-55.5 274zM336 729q0 -113 38 -208t105.5 -163.5t159.5 -106.5 t201 -38t201 38t159.5 106.5t105 163.5t37.5 208q0 115 -37.5 209t-105 162.5t-160 106.5t-200.5 38q-109 0 -201 -38t-159.5 -106.5t-105.5 -162.5t-38 -209zM506 729q0 98 30.5 169t80 116t113 66.5t128.5 21.5q80 0 141.5 -27.5t114.5 -73.5l-131 -131q-35 29 -60.5 41.5 t-64.5 12.5q-68 0 -110.5 -48.5t-42.5 -146.5t43 -146t110 -48q39 0 64.5 12t60.5 41l131 -131q-53 -45 -114.5 -73t-141.5 -28q-66 0 -129 21.5t-112.5 66.5t-80 116t-30.5 169z" />
<glyph unicode="&#xaa;" horiz-adv-x="907" d="M158 803q0 31 5 75t25 142q29 147 57.5 233t76.5 133q51 51 106 67.5t115 16.5q59 0 107 -19t87 -67l15 76h245l-176 -880h-246l15 73q-37 -39 -87 -61.5t-114 -22.5q-70 0 -114 23.5t-70.5 58.5t-36.5 76t-10 76zM426 887q0 -10 1 -24.5t9 -29t23.5 -23.5t42.5 -9 q53 0 84 30q25 27 40 73t29 116q6 31 11.5 69.5t5.5 63.5q0 10 -1 24.5t-9.5 29t-22.5 23.5t-43 9q-53 0 -82 -29q-27 -25 -42 -71.5t-30 -118.5q-6 -31 -11 -70t-5 -63z" />
<glyph unicode="&#xab;" horiz-adv-x="1306" d="M66 573l641 547l-82 -407l-195 -166l127 -168l-70 -361zM668 573l641 547l-82 -407l-195 -166l127 -168l-69 -361z" />
<glyph unicode="&#xac;" d="M78 502l59 297h914l-123 -615h-299l63 318h-614z" />
<glyph unicode="&#xad;" horiz-adv-x="829" d="M80 455l59 299h639l-59 -299h-639z" />
<glyph unicode="&#xae;" horiz-adv-x="1599" d="M135 729q0 145 55.5 274.5t150.5 224.5t224 150.5t275 55.5q145 0 274 -55.5t224.5 -150.5t150.5 -224.5t55 -274.5t-55 -274t-150.5 -224.5t-224.5 -150.5t-274 -55t-274.5 55t-224.5 150.5t-150.5 224.5t-55.5 274zM336 729q0 -113 38 -208t105.5 -163.5t159.5 -106.5 t201 -38t201 38t159.5 106.5t105 163.5t37.5 208q0 115 -37.5 209t-105 162.5t-160 106.5t-200.5 38q-109 0 -201 -38t-159.5 -106.5t-105.5 -162.5t-38 -209zM569 360v738h328q61 0 108.5 -20.5t79 -53.5t48 -76t16.5 -88q0 -74 -37 -121t-82 -69l139 -310h-229l-111 275 h-59v-275h-201zM770 786h100q37 0 57.5 22.5t20.5 51.5t-20.5 51.5t-57.5 22.5h-100v-148z" />
<glyph unicode="&#xaf;" horiz-adv-x="972" d="M324 1309l41 202h634l-41 -202h-634z" />
<glyph unicode="&#xb0;" horiz-adv-x="946" d="M201 1094q0 84 28.5 153.5t80.5 121.5t123 81t153 29q84 0 153.5 -29t121.5 -81t81 -121.5t29 -153.5q0 -82 -29 -153t-81 -123t-121.5 -80.5t-153.5 -28.5q-82 0 -153 28.5t-123 80.5t-80.5 123t-28.5 153zM453 1094q0 -55 38.5 -94t94.5 -39q55 0 94 39t39 94t-39 94 t-94 39t-94 -39t-39 -94z" />
<glyph unicode="&#xb1;" d="M-8 0l59 297h891l-59 -297h-891zM139 750l60 297h293l63 319h301l-65 -319h299l-60 -297h-299l-63 -320h-299l63 320h-293z" />
<glyph unicode="&#xb2;" horiz-adv-x="714" d="M92 584l41 200l348 316q35 33 51.5 56.5t16.5 51.5q0 23 -11.5 40.5t-37.5 17.5q-37 0 -51.5 -19.5t-18.5 -48.5h-225q23 123 100.5 195.5t218.5 72.5q117 0 183.5 -61t66.5 -176q0 -86 -44 -148.5t-122 -128.5l-194 -168h286l-38 -200h-570z" />
<glyph unicode="&#xb3;" horiz-adv-x="729" d="M139 782q0 25 1 41.5t5 32.5h222q-6 -37 5 -58.5t46 -21.5q37 0 56.5 26.5t19.5 65.5q0 35 -16.5 51.5t-39.5 16.5h-26l37 190h22q27 0 43 9.5t25.5 24t12.5 28.5t3 24q0 29 -13.5 41.5t-31.5 12.5q-27 0 -46.5 -17.5t-23.5 -52.5h-227q23 147 110 208.5t216 61.5 q111 0 178 -65.5t67 -171.5q0 -57 -24.5 -110.5t-93.5 -94.5q29 -27 43 -60.5t14 -93.5q0 -70 -24.5 -124t-66.5 -92t-100.5 -58.5t-125.5 -20.5q-137 0 -202 62.5t-65 144.5z" />
<glyph unicode="&#xb4;" horiz-adv-x="972" d="M516 1245l166 363h326l-297 -363h-195z" />
<glyph unicode="&#xb5;" horiz-adv-x="1136" d="M-59 -356l290 1458h320l-133 -666q-6 -27 -6 -55q0 -55 30.5 -80t61.5 -25q55 0 103 34t67 126l133 666h319l-219 -1102h-305l19 96q-53 -53 -126 -80.5t-145 -27.5h-20l-70 -344h-319z" />
<glyph unicode="&#xb6;" horiz-adv-x="1376" d="M156 1024q0 80 28.5 158t92 139t166 99t249.5 38h729l-364 -1814h-318l303 1515h-176l-303 -1515h-319l202 1007q-37 4 -87 26.5t-95 68t-76.5 114t-31.5 164.5z" />
<glyph unicode="&#xb7;" horiz-adv-x="600" d="M109 604q0 43 16 80t44 64.5t64.5 44t79.5 16.5t80 -16.5t64.5 -44t44 -64.5t16.5 -80t-16.5 -80t-44 -64.5t-64.5 -44t-80 -16.5t-79.5 16.5t-64.5 44t-44 64.5t-16 80z" />
<glyph unicode="&#xb8;" horiz-adv-x="972" d="M109 -406l186 291h225l-125 -291h-286z" />
<glyph unicode="&#xb9;" horiz-adv-x="604" d="M168 1040l55 267l215 151h226l-175 -874h-227l121 608z" />
<glyph unicode="&#xba;" horiz-adv-x="907" d="M166 862q0 41 6 84t12 74q25 133 58.5 210t93.5 136q47 47 117.5 75.5t162.5 28.5q57 0 111.5 -17t97.5 -53t70 -91t27 -129q0 -41 -5.5 -85t-11.5 -75q-25 -131 -59.5 -209t-93.5 -137q-47 -47 -118 -76t-163 -29q-57 0 -111.5 17.5t-97.5 54.5t-69.5 92t-26.5 129z M420 893q0 -43 18.5 -67.5t59.5 -24.5q51 0 82 33q27 27 42 73.5t27 112.5t15.5 91.5t3.5 35.5q0 43 -18.5 67.5t-59.5 24.5q-51 0 -82 -33q-27 -27 -42 -74t-28 -112q-12 -66 -15 -91.5t-3 -35.5z" />
<glyph unicode="&#xbb;" horiz-adv-x="1306" d="M14 18l82 408l195 166l-127 168l69 360l422 -555zM616 18l82 408l195 166l-127 168l70 360l421 -555z" />
<glyph unicode="&#xbc;" horiz-adv-x="1708" d="M162 1036l55 267l221 155h226l-175 -874h-227l121 608zM270 0l951 1458h252l-951 -1458h-252zM930 117l41 211l379 546h249l-380 -546h104l16 78h213l-16 -78h53l-41 -211h-53l-22 -117h-213l24 117h-354z" />
<glyph unicode="&#xbd;" horiz-adv-x="1773" d="M162 1036l55 267l221 155h226l-175 -874h-227l121 608zM270 0l951 1458h252l-951 -1458h-252zM1038 0l41 201l348 315q35 33 51.5 56.5t16.5 52.5q0 23 -11 40t-38 17q-37 0 -51.5 -19.5t-18.5 -48.5h-225q23 123 100.5 196t218.5 73q117 0 183.5 -61.5t66.5 -176.5 q0 -86 -44 -148.5t-122 -127.5l-194 -168h287l-39 -201h-570z" />
<glyph unicode="&#xbe;" horiz-adv-x="1767" d="M139 782q0 25 1 41.5t5 32.5h222q-6 -37 5 -58.5t46 -21.5q37 0 56.5 26.5t19.5 65.5q0 35 -16.5 51.5t-39.5 16.5h-26l37 190h22q27 0 43 9.5t25.5 24t12.5 28.5t3 24q0 29 -13.5 41.5t-31.5 12.5q-27 0 -46.5 -17.5t-23.5 -52.5h-227q23 147 110 208.5t216 61.5 q111 0 178 -65.5t67 -171.5q0 -57 -24.5 -110.5t-93.5 -94.5q29 -27 43 -60.5t14 -93.5q0 -70 -24.5 -124t-66.5 -92t-100.5 -58.5t-125.5 -20.5q-137 0 -202 62.5t-65 144.5zM330 0l950 1458h252l-950 -1458h-252zM989 117l41 211l379 546h250l-381 -546h104l17 78h213 l-17 -78h54l-41 -211h-54l-22 -117h-213l24 117h-354z" />
<glyph unicode="&#xbf;" horiz-adv-x="1046" d="M-37 -29q0 111 41 193t115 160l168 178q14 14 30.5 38.5t24.5 57.5l4 18h320l-11 -47q-12 -57 -37.5 -114.5t-80.5 -112.5l-168 -168q-33 -33 -58.5 -75t-25.5 -91q0 -37 21.5 -63.5t62.5 -26.5q70 0 105.5 35t45.5 94h320q-20 -115 -68.5 -194.5t-117 -129t-153.5 -71 t-179 -21.5q-70 0 -134.5 23.5t-114.5 66.5t-80 106.5t-30 143.5zM377 924q0 76 54 130t130 54t130 -54t54 -130q0 -37 -14 -71t-39.5 -59.5t-59.5 -41t-71 -15.5t-70.5 15.5t-59 41t-40 59.5t-14.5 71z" />
<glyph unicode="&#xc0;" horiz-adv-x="1273" d="M-106 0l794 1458h264l215 -1458h-346l-20 229h-432l-113 -229h-362zM508 506h266l-45 430zM565 1960h320l20 -363h-186z" />
<glyph unicode="&#xc1;" horiz-adv-x="1273" d="M-106 0l794 1458h264l215 -1458h-346l-20 229h-432l-113 -229h-362zM508 506h266l-45 430zM686 1597l166 363h326l-297 -363h-195z" />
<glyph unicode="&#xc2;" horiz-adv-x="1273" d="M-106 0l794 1458h264l215 -1458h-346l-20 229h-432l-113 -229h-362zM438 1602l338 366h246l190 -366h-223l-115 178l-190 -178h-246zM508 506h266l-45 430z" />
<glyph unicode="&#xc3;" horiz-adv-x="1273" d="M-106 0l794 1458h264l215 -1458h-346l-20 229h-432l-113 -229h-362zM446 1792q59 55 113.5 84t130.5 29q59 0 97 -13.5t71 -29.5q29 -16 54.5 -24.5t54.5 -8.5q43 0 73.5 18.5t53.5 40.5l110 -147q-59 -55 -113.5 -84t-129.5 -29q-59 0 -97.5 13.5t-70.5 29.5 q-29 16 -54.5 24.5t-54.5 8.5q-43 0 -73.5 -18.5t-53.5 -40.5zM508 506h266l-45 430z" />
<glyph unicode="&#xc4;" horiz-adv-x="1273" d="M-106 0l794 1458h264l215 -1458h-346l-20 229h-432l-113 -229h-362zM475 1736q0 66 45 111t111 45t111 -45t45 -111t-45.5 -110.5t-110.5 -44.5q-66 0 -111 45t-45 110zM508 506h266l-45 430zM932 1736q0 66 45 111t111 45t110.5 -45t44.5 -111t-45 -110.5t-110 -44.5 q-66 0 -111 45t-45 110z" />
<glyph unicode="&#xc5;" horiz-adv-x="1273" d="M-106 0l794 1458h264l215 -1458h-346l-20 229h-432l-113 -229h-362zM508 506h266l-45 430zM563 1817q0 59 21.5 108t58.5 85t86 56.5t105 20.5q55 0 104 -20.5t86 -56.5t58.5 -85t21.5 -108q0 -57 -21.5 -107.5t-58.5 -86.5t-86 -56.5t-104 -20.5t-104.5 20.5t-86.5 56.5 t-58.5 86t-21.5 108zM729 1817q0 -43 32 -74t73 -31t72.5 31t31.5 74t-32 73.5t-72 30.5q-41 0 -73 -30.5t-32 -73.5z" />
<glyph unicode="&#xc6;" horiz-adv-x="1992" d="M-106 0l1011 1458h1163l-59 -297h-602l-53 -276h516l-60 -297h-518l-57 -291h610l-59 -297h-950l63 322h-410l-221 -322h-374zM684 604h272l111 555z" />
<glyph unicode="&#xc7;" d="M90 418q0 59 11.5 136t31.5 175q25 121 44.5 209t44 153.5t55 115.5t75.5 96q92 92 204 129.5t220 37.5q76 0 134.5 -15t102.5 -39.5t76.5 -56.5t57.5 -65l-254 -215q-37 55 -74 73.5t-76 18.5q-49 0 -81.5 -16t-59.5 -45q-18 -20 -33.5 -46t-30 -68t-29.5 -106.5 t-36 -160.5q-6 -31 -13 -69.5t-12.5 -76.5t-9.5 -75t-4 -66q0 -63 32 -109t116 -46q68 0 111.5 30.5t68.5 61.5l194 -240q-59 -59 -155 -105t-232 -46q-125 0 -215 37.5t-148.5 98t-87 137.5t-28.5 157zM256 -406l186 291h226l-125 -291h-287z" />
<glyph unicode="&#xc8;" horiz-adv-x="1189" d="M33 0l293 1458h940l-60 -299h-600l-55 -274h518l-59 -299h-518l-58 -287h613l-60 -299h-954zM541 1960h319l21 -363h-187z" />
<glyph unicode="&#xc9;" horiz-adv-x="1189" d="M33 0l293 1458h940l-60 -299h-600l-55 -274h518l-59 -299h-518l-58 -287h613l-60 -299h-954zM633 1597l166 363h325l-297 -363h-194z" />
<glyph unicode="&#xca;" horiz-adv-x="1189" d="M33 0l293 1458h940l-60 -299h-600l-55 -274h518l-59 -299h-518l-58 -287h613l-60 -299h-954zM420 1737q0 66 45 110.5t110 44.5q66 0 111 -44.5t45 -110.5t-45 -111t-111 -45t-110.5 45t-44.5 111zM877 1737q0 66 45 110.5t110 44.5q66 0 111 -44.5t45 -110.5t-45 -111 t-111 -45t-110.5 45t-44.5 111z" />
<glyph unicode="&#xcb;" horiz-adv-x="1189" d="M33 0l293 1458h940l-60 -299h-600l-55 -274h518l-59 -299h-518l-58 -287h613l-60 -299h-954zM420 1737q0 66 45 110.5t110 44.5q66 0 111 -44.5t45 -110.5t-45 -111t-111 -45t-110.5 45t-44.5 111zM877 1737q0 66 45 110.5t110 44.5q66 0 111 -44.5t45 -110.5t-45 -111 t-111 -45t-110.5 45t-44.5 111z" />
<glyph unicode="&#xcc;" horiz-adv-x="620" d="M33 0l293 1458h340l-293 -1458h-340zM283 1960h319l21 -363h-187z" />
<glyph unicode="&#xcd;" horiz-adv-x="620" d="M33 0l293 1458h340l-293 -1458h-340zM377 1597l166 363h325l-297 -363h-194z" />
<glyph unicode="&#xce;" horiz-adv-x="620" d="M33 0l293 1458h340l-293 -1458h-340zM117 1602l338 366h245l191 -366h-223l-115 178l-191 -178h-245z" />
<glyph unicode="&#xcf;" horiz-adv-x="620" d="M33 0l293 1458h340l-293 -1458h-340zM156 1737q0 66 45 110.5t110 44.5q66 0 111 -44.5t45 -110.5t-45 -111t-111 -45t-110.5 45t-44.5 111zM612 1737q0 66 45 110.5t111 44.5t111 -44.5t45 -110.5t-45 -111t-111 -45t-111 45t-45 111z" />
<glyph unicode="&#xd0;" horiz-adv-x="1320" d="M84 608l51 258h127l119 592h489q203 0 323 -106.5t120 -307.5q0 -23 -2 -47t-7.5 -60t-14.5 -86t-23 -122q-27 -137 -48.5 -227t-45 -152.5t-54.5 -107.5t-78 -92q-150 -150 -415 -150h-537l123 608h-127zM487 299h152q57 0 98 17.5t72 48.5q16 16 29.5 37.5t26 60.5 t27.5 102.5t34 163.5q25 127 34 191.5t9 91.5q0 84 -47.5 115.5t-108.5 31.5h-151l-60 -293h174l-51 -258h-174z" />
<glyph unicode="&#xd1;" horiz-adv-x="1366" d="M33 0l293 1458h282l312 -760l151 760h340l-293 -1458h-282l-310 758l-153 -758h-340zM481 1792q59 55 113.5 84t130.5 29q59 0 97 -13.5t71 -29.5q29 -16 54.5 -24.5t53.5 -8.5q43 0 74 18.5t53 40.5l111 -147q-59 -55 -113.5 -84t-130.5 -29q-59 0 -97 13.5t-71 29.5 q-29 16 -54 24.5t-54 8.5q-43 0 -74 -18.5t-53 -40.5z" />
<glyph unicode="&#xd2;" horiz-adv-x="1245" d="M90 414q0 104 43 315q18 96 37.5 178t44.5 152.5t58.5 131t84.5 112.5q86 86 199 126.5t215 40.5q113 0 199 -35.5t143 -95t87 -136.5t30 -159q0 -102 -43 -315q-18 -94 -38 -177t-44.5 -153.5t-58 -131t-84.5 -111.5q-86 -86 -199 -127t-215 -41q-113 0 -199 35.5 t-143 95t-87 136.5t-30 159zM434 442q0 -76 41 -115.5t103 -39.5q43 0 80.5 19.5t66.5 49.5q16 18 30.5 44t29 68t29.5 105.5t34 155.5q6 31 13 70t12.5 76.5t9.5 74.5t4 66q0 76 -41 115.5t-103 39.5q-43 0 -80.5 -19t-66.5 -50q-16 -18 -30.5 -44t-29 -68t-29.5 -105.5 t-34 -155.5q-6 -31 -13 -69.5t-12.5 -76.5t-9.5 -75t-4 -66zM557 1960h320l20 -363h-186z" />
<glyph unicode="&#xd3;" horiz-adv-x="1245" d="M90 414q0 104 43 315q18 96 37.5 178t44.5 152.5t58.5 131t84.5 112.5q86 86 199 126.5t215 40.5q113 0 199 -35.5t143 -95t87 -136.5t30 -159q0 -102 -43 -315q-18 -94 -38 -177t-44.5 -153.5t-58 -131t-84.5 -111.5q-86 -86 -199 -127t-215 -41q-113 0 -199 35.5 t-143 95t-87 136.5t-30 159zM434 442q0 -76 41 -115.5t103 -39.5q43 0 80.5 19.5t66.5 49.5q16 18 30.5 44t29 68t29.5 105.5t34 155.5q6 31 13 70t12.5 76.5t9.5 74.5t4 66q0 76 -41 115.5t-103 39.5q-43 0 -80.5 -19t-66.5 -50q-16 -18 -30.5 -44t-29 -68t-29.5 -105.5 t-34 -155.5q-6 -31 -13 -69.5t-12.5 -76.5t-9.5 -75t-4 -66zM676 1597l166 363h325l-297 -363h-194z" />
<glyph unicode="&#xd4;" horiz-adv-x="1245" d="M90 414q0 104 43 315q18 96 37.5 178t44.5 152.5t58.5 131t84.5 112.5q86 86 199 126.5t215 40.5q113 0 199 -35.5t143 -95t87 -136.5t30 -159q0 -102 -43 -315q-18 -94 -38 -177t-44.5 -153.5t-58 -131t-84.5 -111.5q-86 -86 -199 -127t-215 -41q-113 0 -199 35.5 t-143 95t-87 136.5t-30 159zM410 1602l338 366h245l191 -366h-223l-115 178l-191 -178h-245zM434 442q0 -76 41 -115.5t103 -39.5q43 0 80.5 19.5t66.5 49.5q16 18 30.5 44t29 68t29.5 105.5t34 155.5q6 31 13 70t12.5 76.5t9.5 74.5t4 66q0 76 -41 115.5t-103 39.5 q-43 0 -80.5 -19t-66.5 -50q-16 -18 -30.5 -44t-29 -68t-29.5 -105.5t-34 -155.5q-6 -31 -13 -69.5t-12.5 -76.5t-9.5 -75t-4 -66z" />
<glyph unicode="&#xd5;" horiz-adv-x="1245" d="M90 414q0 104 43 315q18 96 37.5 178t44.5 152.5t58.5 131t84.5 112.5q86 86 199 126.5t215 40.5q113 0 199 -35.5t143 -95t87 -136.5t30 -159q0 -102 -43 -315q-18 -94 -38 -177t-44.5 -153.5t-58 -131t-84.5 -111.5q-86 -86 -199 -127t-215 -41q-113 0 -199 35.5 t-143 95t-87 136.5t-30 159zM434 442q0 -76 41 -115.5t103 -39.5q43 0 80.5 19.5t66.5 49.5q16 18 30.5 44t29 68t29.5 105.5t34 155.5q6 31 13 70t12.5 76.5t9.5 74.5t4 66q0 76 -41 115.5t-103 39.5q-43 0 -80.5 -19t-66.5 -50q-16 -18 -30.5 -44t-29 -68t-29.5 -105.5 t-34 -155.5q-6 -31 -13 -69.5t-12.5 -76.5t-9.5 -75t-4 -66zM434 1792q59 55 113.5 84t130.5 29q59 0 97 -13.5t71 -29.5q29 -16 54.5 -24.5t53.5 -8.5q43 0 74 18.5t53 40.5l111 -147q-59 -55 -113.5 -84t-130.5 -29q-59 0 -97 13.5t-71 29.5q-29 16 -54.5 24.5t-53.5 8.5 q-43 0 -74 -18.5t-53 -40.5z" />
<glyph unicode="&#xd6;" horiz-adv-x="1245" d="M90 414q0 104 43 315q18 96 37.5 178t44.5 152.5t58.5 131t84.5 112.5q86 86 199 126.5t215 40.5q113 0 199 -35.5t143 -95t87 -136.5t30 -159q0 -102 -43 -315q-18 -94 -38 -177t-44.5 -153.5t-58 -131t-84.5 -111.5q-86 -86 -199 -127t-215 -41q-113 0 -199 35.5 t-143 95t-87 136.5t-30 159zM434 442q0 -76 41 -115.5t103 -39.5q43 0 80.5 19.5t66.5 49.5q16 18 30.5 44t29 68t29.5 105.5t34 155.5q6 31 13 70t12.5 76.5t9.5 74.5t4 66q0 76 -41 115.5t-103 39.5q-43 0 -80.5 -19t-66.5 -50q-16 -18 -30.5 -44t-29 -68t-29.5 -105.5 t-34 -155.5q-6 -31 -13 -69.5t-12.5 -76.5t-9.5 -75t-4 -66zM455 1737q0 66 45 110.5t110 44.5q66 0 111 -44.5t45 -110.5t-45 -111t-111 -45t-110.5 45t-44.5 111zM911 1737q0 66 45 110.5t111 44.5t111 -44.5t45 -110.5t-45 -111t-111 -45t-111 45t-45 111z" />
<glyph unicode="&#xd7;" d="M37 340l317 274l-209 277l236 203l207 -277l317 277l170 -224l-319 -276l209 -272l-234 -203l-207 276l-317 -278z" />
<glyph unicode="&#xd8;" horiz-adv-x="1253" d="M14 -90l160 244q-43 55 -64.5 122.5t-21.5 137.5q0 104 43 315q18 96 37.5 178t44.5 152.5t58.5 131t84.5 112.5q86 86 201 126.5t217 40.5q125 0 221 -45l80 123h234l-158 -245q43 -55 64.5 -121t21.5 -138q0 -102 -43 -315q-18 -94 -37.5 -177t-44.5 -153.5t-58.5 -131 t-84.5 -111.5q-86 -86 -201 -127t-217 -41q-133 0 -221 45l-82 -123h-234zM438 532l396 613q-35 27 -89 26q-43 0 -82.5 -19t-68.5 -50q-16 -18 -30.5 -44t-29 -68t-30 -105.5t-33.5 -155.5q-8 -41 -18.5 -95t-14.5 -102zM492 311q18 -14 40.5 -19t47.5 -5q43 0 82.5 19.5 t68.5 49.5q16 18 30.5 44t29 68t30 105.5t33.5 155.5q10 41 19.5 96.5t13.5 106.5z" />
<glyph unicode="&#xd9;" horiz-adv-x="1284" d="M104 414q0 29 4.5 66.5t8.5 60.5l184 917h340l-188 -936q-4 -18 -6.5 -39.5t-2.5 -42.5q0 -61 34 -106t112 -45q104 0 159.5 67.5t77.5 182.5l185 919h340l-191 -948q-29 -143 -88 -242.5t-139 -162t-173 -90t-192 -27.5q-104 0 -190 31.5t-146.5 88t-94.5 135.5t-34 171 zM586 1960h319l21 -363h-187z" />
<glyph unicode="&#xda;" horiz-adv-x="1284" d="M104 414q0 29 4.5 66.5t8.5 60.5l184 917h340l-188 -936q-4 -18 -6.5 -39.5t-2.5 -42.5q0 -61 34 -106t112 -45q104 0 159.5 67.5t77.5 182.5l185 919h340l-191 -948q-29 -143 -88 -242.5t-139 -162t-173 -90t-192 -27.5q-104 0 -190 31.5t-146.5 88t-94.5 135.5t-34 171 zM705 1597l165 363h326l-297 -363h-194z" />
<glyph unicode="&#xdb;" horiz-adv-x="1284" d="M104 414q0 29 4.5 66.5t8.5 60.5l184 917h340l-188 -936q-4 -18 -6.5 -39.5t-2.5 -42.5q0 -61 34 -106t112 -45q104 0 159.5 67.5t77.5 182.5l185 919h340l-191 -948q-29 -143 -88 -242.5t-139 -162t-173 -90t-192 -27.5q-104 0 -190 31.5t-146.5 88t-94.5 135.5t-34 171 zM442 1602l338 366h246l191 -366h-224l-114 178l-191 -178h-246z" />
<glyph unicode="&#xdc;" horiz-adv-x="1284" d="M104 414q0 29 4.5 66.5t8.5 60.5l184 917h340l-188 -936q-4 -18 -6.5 -39.5t-2.5 -42.5q0 -61 34 -106t112 -45q104 0 159.5 67.5t77.5 182.5l185 919h340l-191 -948q-29 -143 -88 -242.5t-139 -162t-173 -90t-192 -27.5q-104 0 -190 31.5t-146.5 88t-94.5 135.5t-34 171 zM483 1737q0 66 45 110.5t111 44.5t111 -44.5t45 -110.5t-45 -111t-111 -45t-111 45t-45 111zM940 1737q0 66 45 110.5t111 44.5t110.5 -44.5t44.5 -110.5t-45 -111t-110 -45q-66 0 -111 45t-45 111z" />
<glyph unicode="&#xdd;" horiz-adv-x="1198" d="M168 1458h364l134 -545l329 545h375l-590 -874l-116 -584h-340l118 594zM625 1597l166 363h326l-297 -363h-195z" />
<glyph unicode="&#xde;" horiz-adv-x="1220" d="M33 0l293 1458h340l-54 -262h191q88 0 161.5 -27.5t128 -80t84 -127t29.5 -170.5q0 -94 -34.5 -186.5t-104.5 -164t-173 -116.5t-241 -45h-225l-55 -279h-340zM489 580h179q57 0 95 20.5t60.5 49t31.5 59.5t9 51q0 57 -27.5 96t-93.5 39h-190z" />
<glyph unicode="&#xdf;" horiz-adv-x="1140" d="M14 0l215 1073q25 123 74 201t119 122t157 59t185 15q88 0 160.5 -20t125 -61t82 -101.5t29.5 -140.5q0 -35 -9 -74t-28.5 -78t-52.5 -72.5t-80 -58.5q82 -53 82 -153q0 -8 -1 -21.5t-3 -23.5l-57 -312q-35 -193 -129.5 -273.5t-276.5 -80.5h-123l54 268h38q49 0 76 25 q16 12 26.5 35.5t14.5 46.5l53 276l3.5 17.5t1.5 15.5q0 66 -74 66h-47l49 245h51q51 0 79 35t28 78q0 14 -2.5 25.5t-10.5 23.5q-10 14 -33.5 25.5t-62.5 11.5q-92 0 -130 -39t-52 -111l-209 -1044h-322z" />
<glyph unicode="&#xe0;" horiz-adv-x="1107" d="M51 272q0 18 1 40t4 52.5t11.5 75.5t20.5 111q37 186 73 292.5t95 166.5q63 63 133 83.5t143 20.5q76 0 135.5 -23.5t106.5 -82.5l19 94h307l-219 -1102h-308l19 92q-45 -49 -109.5 -76.5t-142.5 -27.5q-86 0 -142.5 29.5t-88 72.5t-45 92t-13.5 90zM385 385 q0 -12 2 -30.5t11.5 -36t28.5 -30t54 -12.5q66 0 103 37q33 33 52 91.5t36 146.5q8 39 15 87t7 79q0 12 -2 30.5t-11 36t-28.5 29.5t-54.5 12q-66 0 -102 -37q-33 -33 -52.5 -91t-35.5 -146q-8 -39 -15.5 -87t-7.5 -79zM420 1608h319l21 -363h-187z" />
<glyph unicode="&#xe1;" horiz-adv-x="1107" d="M51 272q0 18 1 40t4 52.5t11.5 75.5t20.5 111q37 186 73 292.5t95 166.5q63 63 133 83.5t143 20.5q76 0 135.5 -23.5t106.5 -82.5l19 94h307l-219 -1102h-308l19 92q-45 -49 -109.5 -76.5t-142.5 -27.5q-86 0 -142.5 29.5t-88 72.5t-45 92t-13.5 90zM385 385 q0 -12 2 -30.5t11.5 -36t28.5 -30t54 -12.5q66 0 103 37q33 33 52 91.5t36 146.5q8 39 15 87t7 79q0 12 -2 30.5t-11 36t-28.5 29.5t-54.5 12q-66 0 -102 -37q-33 -33 -52.5 -91t-35.5 -146q-8 -39 -15.5 -87t-7.5 -79zM539 1245l166 363h325l-297 -363h-194z" />
<glyph unicode="&#xe2;" horiz-adv-x="1107" d="M51 272q0 18 1 40t4 52.5t11.5 75.5t20.5 111q37 186 73 292.5t95 166.5q63 63 133 83.5t143 20.5q76 0 135.5 -23.5t106.5 -82.5l19 94h307l-219 -1102h-308l19 92q-45 -49 -109.5 -76.5t-142.5 -27.5q-86 0 -142.5 29.5t-88 72.5t-45 92t-13.5 90zM268 1249l338 367 h246l190 -367h-223l-114 178l-191 -178h-246zM385 385q0 -12 2 -30.5t11.5 -36t28.5 -30t54 -12.5q66 0 103 37q33 33 52 91.5t36 146.5q8 39 15 87t7 79q0 12 -2 30.5t-11 36t-28.5 29.5t-54.5 12q-66 0 -102 -37q-33 -33 -52.5 -91t-35.5 -146q-8 -39 -15.5 -87t-7.5 -79z " />
<glyph unicode="&#xe3;" horiz-adv-x="1107" d="M51 272q0 18 1 40t4 52.5t11.5 75.5t20.5 111q37 186 73 292.5t95 166.5q63 63 133 83.5t143 20.5q76 0 135.5 -23.5t106.5 -82.5l19 94h307l-219 -1102h-308l19 92q-45 -49 -109.5 -76.5t-142.5 -27.5q-86 0 -142.5 29.5t-88 72.5t-45 92t-13.5 90zM303 1440 q59 55 113.5 83.5t130.5 28.5q59 0 97 -13t71 -30q29 -16 54.5 -24t53.5 -8q43 0 74 18t53 41l111 -147q-59 -55 -113.5 -84t-130.5 -29q-59 0 -97 13.5t-71 29.5q-29 16 -54.5 24.5t-53.5 8.5q-43 0 -74 -18.5t-53 -41.5zM385 385q0 -12 2 -30.5t11.5 -36t28.5 -30 t54 -12.5q66 0 103 37q33 33 52 91.5t36 146.5q8 39 15 87t7 79q0 12 -2 30.5t-11 36t-28.5 29.5t-54.5 12q-66 0 -102 -37q-33 -33 -52.5 -91t-35.5 -146q-8 -39 -15.5 -87t-7.5 -79z" />
<glyph unicode="&#xe4;" horiz-adv-x="1107" d="M51 272q0 18 1 40t4 52.5t11.5 75.5t20.5 111q37 186 73 292.5t95 166.5q63 63 133 83.5t143 20.5q76 0 135.5 -23.5t106.5 -82.5l19 94h307l-219 -1102h-308l19 92q-45 -49 -109.5 -76.5t-142.5 -27.5q-86 0 -142.5 29.5t-88 72.5t-45 92t-13.5 90zM344 1384 q0 66 45 111t111 45t110.5 -45t44.5 -111t-45 -110.5t-110 -44.5q-66 0 -111 45t-45 110zM385 385q0 -12 2 -30.5t11.5 -36t28.5 -30t54 -12.5q66 0 103 37q33 33 52 91.5t36 146.5q8 39 15 87t7 79q0 12 -2 30.5t-11 36t-28.5 29.5t-54.5 12q-66 0 -102 -37 q-33 -33 -52.5 -91t-35.5 -146q-8 -39 -15.5 -87t-7.5 -79zM801 1384q0 66 45 111t110 45q66 0 111 -45t45 -111t-45 -110.5t-111 -44.5t-110.5 45t-44.5 110z" />
<glyph unicode="&#xe5;" horiz-adv-x="1107" d="M51 272q0 18 1 40t4 52.5t11.5 75.5t20.5 111q37 186 73 292.5t95 166.5q63 63 133 83.5t143 20.5q76 0 135.5 -23.5t106.5 -82.5l19 94h307l-219 -1102h-308l19 92q-45 -49 -109.5 -76.5t-142.5 -27.5q-86 0 -142.5 29.5t-88 72.5t-45 92t-13.5 90zM385 385 q0 -12 2 -30.5t11.5 -36t28.5 -30t54 -12.5q66 0 103 37q33 33 52 91.5t36 146.5q8 39 15 87t7 79q0 12 -2 30.5t-11 36t-28.5 29.5t-54.5 12q-66 0 -102 -37q-33 -33 -52.5 -91t-35.5 -146q-8 -39 -15.5 -87t-7.5 -79zM424 1485q0 59 21.5 108t58.5 85t86 56.5t104 20.5 t104.5 -20.5t86.5 -56.5t58.5 -85t21.5 -108q0 -57 -21.5 -107.5t-58.5 -86.5t-86 -56.5t-105 -20.5q-55 0 -104 20.5t-86 56.5t-58.5 86t-21.5 108zM590 1485q0 -43 31.5 -74t72.5 -31t73 31t32 74t-32 73.5t-73 30.5t-72.5 -30.5t-31.5 -73.5z" />
<glyph unicode="&#xe6;" horiz-adv-x="1705" d="M51 297q0 33 7.5 97.5t25.5 156.5q23 113 43 189.5t41.5 128t43 84t46.5 57.5q53 53 122 78.5t161 25.5q86 0 144 -30.5t95 -84.5l21 103h205l-23 -113q16 23 38.5 44.5t54.5 40t78 29.5t108 11q45 0 111.5 -17.5t128 -62.5t105.5 -122.5t44 -198.5q0 -63 -10.5 -131 t-26.5 -133h-645q-2 -12 -3 -21.5t-1 -21.5q0 -68 45 -109t127 -41q70 0 127 26.5t108 75.5l160 -208q-84 -80 -197.5 -121t-230.5 -41q-96 0 -161.5 29.5t-117.5 95.5l-22 -113h-205l20 102q-39 -41 -106.5 -77.5t-167.5 -36.5q-86 0 -143.5 29.5t-90 74.5t-46 99.5 t-13.5 105.5zM385 399q0 -20 4 -41.5t15.5 -40t32 -30t50.5 -11.5q74 0 115 48q53 61 86 227q10 47 14.5 87.5t4.5 63.5q0 20 -4.5 42t-15.5 40.5t-31.5 29.5t-51.5 11q-68 0 -108 -41q-59 -59 -93 -233q-10 -47 -14 -88t-4 -64zM1010 659h331q4 12 5.5 28t1.5 26 q0 63 -32 101t-97 38q-66 0 -122.5 -41t-86.5 -152z" />
<glyph unicode="&#xe7;" horiz-adv-x="927" d="M61 379q0 84 17 172q35 184 99.5 294.5t142 171t161.5 79t156 18.5q123 0 202 -44t126 -103l-242 -213q-25 33 -52.5 52t-64.5 19q-63 0 -110 -49q-70 -74 -99 -225q-6 -33 -10 -63.5t-4 -65.5q0 -59 22.5 -102.5t88.5 -43.5q43 0 79.5 19.5t71.5 54.5l176 -231 q-66 -59 -159 -95t-203 -36q-68 0 -138.5 21.5t-128 68.5t-94.5 121.5t-37 179.5zM133 -406l186 291h226l-125 -291h-287z" />
<glyph unicode="&#xe8;" horiz-adv-x="1091" d="M57 379q0 147 36 280.5t107.5 234.5t178 160.5t246.5 59.5q88 0 162.5 -26.5t130 -79t87 -126t31.5 -169.5q0 -63 -10 -131t-27 -133h-634q-2 -16 -3.5 -25.5t-1.5 -20.5q0 -66 40 -106.5t122 -40.5q70 0 127.5 26.5t108.5 75.5l160 -208q-84 -80 -198 -121t-237 -41 q-68 0 -142.5 17.5t-137 62.5t-104.5 119.5t-42 191.5zM406 659h321q4 12 5 28t1 26q0 63 -31.5 101t-95.5 38q-63 0 -116.5 -43t-83.5 -150zM455 1608h319l21 -363h-187z" />
<glyph unicode="&#xe9;" horiz-adv-x="1091" d="M57 379q0 147 36 280.5t107.5 234.5t178 160.5t246.5 59.5q88 0 162.5 -26.5t130 -79t87 -126t31.5 -169.5q0 -63 -10 -131t-27 -133h-634q-2 -16 -3.5 -25.5t-1.5 -20.5q0 -66 40 -106.5t122 -40.5q70 0 127.5 26.5t108.5 75.5l160 -208q-84 -80 -198 -121t-237 -41 q-68 0 -142.5 17.5t-137 62.5t-104.5 119.5t-42 191.5zM406 659h321q4 12 5 28t1 26q0 63 -31.5 101t-95.5 38q-63 0 -116.5 -43t-83.5 -150zM573 1245l166 363h326l-297 -363h-195z" />
<glyph unicode="&#xea;" horiz-adv-x="1091" d="M57 379q0 147 36 280.5t107.5 234.5t178 160.5t246.5 59.5q88 0 162.5 -26.5t130 -79t87 -126t31.5 -169.5q0 -63 -10 -131t-27 -133h-634q-2 -16 -3.5 -25.5t-1.5 -20.5q0 -66 40 -106.5t122 -40.5q70 0 127.5 26.5t108.5 75.5l160 -208q-84 -80 -198 -121t-237 -41 q-68 0 -142.5 17.5t-137 62.5t-104.5 119.5t-42 191.5zM299 1249l338 367h246l190 -367h-223l-115 178l-190 -178h-246zM406 659h321q4 12 5 28t1 26q0 63 -31.5 101t-95.5 38q-63 0 -116.5 -43t-83.5 -150z" />
<glyph unicode="&#xeb;" horiz-adv-x="1091" d="M57 379q0 147 36 280.5t107.5 234.5t178 160.5t246.5 59.5q88 0 162.5 -26.5t130 -79t87 -126t31.5 -169.5q0 -63 -10 -131t-27 -133h-634q-2 -16 -3.5 -25.5t-1.5 -20.5q0 -66 40 -106.5t122 -40.5q70 0 127.5 26.5t108.5 75.5l160 -208q-84 -80 -198 -121t-237 -41 q-68 0 -142.5 17.5t-137 62.5t-104.5 119.5t-42 191.5zM326 1384q0 66 45 111t110 45q66 0 111 -45t45 -111t-45 -110.5t-111 -44.5t-110.5 45t-44.5 110zM406 659h321q4 12 5 28t1 26q0 63 -31.5 101t-95.5 38q-63 0 -116.5 -43t-83.5 -150zM782 1384q0 66 45 111t111 45 t111 -45t45 -111t-45 -110.5t-111 -44.5t-111 45t-45 110z" />
<glyph unicode="&#xec;" horiz-adv-x="561" d="M14 0l219 1102h320l-219 -1102h-320zM184 1608h320l20 -363h-186z" />
<glyph unicode="&#xed;" horiz-adv-x="561" d="M14 0l219 1102h320l-219 -1102h-320zM303 1245l166 363h326l-297 -363h-195z" />
<glyph unicode="&#xee;" horiz-adv-x="561" d="M14 0l219 1102h320l-219 -1102h-320zM29 1249l338 367h245l191 -367h-223l-115 178l-191 -178h-245z" />
<glyph unicode="&#xef;" horiz-adv-x="561" d="M14 0l219 1102h320l-219 -1102h-320zM55 1384q0 66 45 111t111 45t111 -45t45 -111t-45.5 -110.5t-110.5 -44.5q-66 0 -111 45t-45 110zM512 1384q0 66 45 111t111 45t110.5 -45t44.5 -111t-45 -110.5t-110 -44.5q-66 0 -111 45t-45 110z" />
<glyph unicode="&#xf0;" horiz-adv-x="1069" d="M76 348q0 23 5 73t17 109q16 78 31.5 138.5t36 109.5t48.5 90t67 80q31 31 73.5 57.5t96.5 43.5q72 23 151 22l-22 88h-230l45 221h123l-24 101h331l25 -101h186l-43 -221h-84l31 -121q16 -61 26.5 -105t16.5 -79t8 -65.5t2 -61.5q0 -35 -5 -84t-17 -113 q-6 -37 -17.5 -89t-32 -110.5t-54 -117.5t-87.5 -109q-55 -51 -140 -83.5t-194 -32.5q-78 0 -145.5 23.5t-117.5 68.5t-78.5 112.5t-28.5 155.5zM395 369q0 -33 8.5 -51.5t21.5 -28.5t27.5 -13.5t26.5 -3.5q29 0 49.5 8.5t36.5 22.5q35 29 52.5 90.5t33.5 136.5 q10 47 16.5 87t6.5 75q0 33 -8.5 51.5t-21.5 28.5t-27.5 13t-26.5 3q-29 0 -49.5 -8t-36.5 -22q-35 -29 -52.5 -90.5t-33.5 -137.5q-10 -47 -16.5 -87t-6.5 -74z" />
<glyph unicode="&#xf1;" horiz-adv-x="1126" d="M14 0l219 1102h306l-19 -96q53 53 126 80.5t145 27.5q41 0 88 -15.5t88 -50t67.5 -93t26.5 -144.5q0 -35 -4 -66.5t-10 -60.5l-138 -684h-319l133 666q6 29 6 55q0 55 -30.5 79.5t-61.5 24.5q-55 0 -103.5 -33.5t-66.5 -125.5l-133 -666h-320zM352 1440q59 55 113.5 83.5 t130.5 28.5q59 0 97 -13t71 -30q29 -16 54.5 -24t53.5 -8q43 0 74 18t53 41l111 -147q-59 -55 -113.5 -84t-130.5 -29q-59 0 -97 13.5t-71 29.5q-29 16 -54.5 24.5t-53.5 8.5q-43 0 -74 -18.5t-53 -41.5z" />
<glyph unicode="&#xf2;" horiz-adv-x="1069" d="M61 352q0 51 7.5 105.5t15.5 93.5q16 82 33.5 145.5t40 114.5t51.5 93t65 79q59 59 147.5 95t203.5 36q72 0 140.5 -22.5t122.5 -67.5t87 -113.5t33 -160.5q0 -51 -7.5 -105.5t-15.5 -93.5q-14 -82 -32.5 -145.5t-41 -114.5t-51.5 -93t-65 -79q-59 -59 -147.5 -95 t-203.5 -36q-72 0 -140 22.5t-122.5 67.5t-87.5 113.5t-33 160.5zM379 391q0 -53 24.5 -84t73.5 -31q61 0 98 37q35 33 55.5 92.5t37.5 145.5q16 82 19 116t3 44q0 53 -24.5 83.5t-73.5 30.5q-61 0 -98 -37q-35 -33 -55.5 -92t-37.5 -145q-16 -82 -19 -116t-3 -44zM440 1608 h320l20 -363h-186z" />
<glyph unicode="&#xf3;" horiz-adv-x="1069" d="M61 352q0 51 7.5 105.5t15.5 93.5q16 82 33.5 145.5t40 114.5t51.5 93t65 79q59 59 147.5 95t203.5 36q72 0 140.5 -22.5t122.5 -67.5t87 -113.5t33 -160.5q0 -51 -7.5 -105.5t-15.5 -93.5q-14 -82 -32.5 -145.5t-41 -114.5t-51.5 -93t-65 -79q-59 -59 -147.5 -95 t-203.5 -36q-72 0 -140 22.5t-122.5 67.5t-87.5 113.5t-33 160.5zM379 391q0 -53 24.5 -84t73.5 -31q61 0 98 37q35 33 55.5 92.5t37.5 145.5q16 82 19 116t3 44q0 53 -24.5 83.5t-73.5 30.5q-61 0 -98 -37q-35 -33 -55.5 -92t-37.5 -145q-16 -82 -19 -116t-3 -44zM559 1245 l166 363h326l-297 -363h-195z" />
<glyph unicode="&#xf4;" horiz-adv-x="1069" d="M61 352q0 51 7.5 105.5t15.5 93.5q16 82 33.5 145.5t40 114.5t51.5 93t65 79q59 59 147.5 95t203.5 36q72 0 140.5 -22.5t122.5 -67.5t87 -113.5t33 -160.5q0 -51 -7.5 -105.5t-15.5 -93.5q-14 -82 -32.5 -145.5t-41 -114.5t-51.5 -93t-65 -79q-59 -59 -147.5 -95 t-203.5 -36q-72 0 -140 22.5t-122.5 67.5t-87.5 113.5t-33 160.5zM285 1249l338 367h245l191 -367h-223l-115 178l-191 -178h-245zM379 391q0 -53 24.5 -84t73.5 -31q61 0 98 37q35 33 55.5 92.5t37.5 145.5q16 82 19 116t3 44q0 53 -24.5 83.5t-73.5 30.5q-61 0 -98 -37 q-35 -33 -55.5 -92t-37.5 -145q-16 -82 -19 -116t-3 -44z" />
<glyph unicode="&#xf5;" horiz-adv-x="1069" d="M61 352q0 51 7.5 105.5t15.5 93.5q16 82 33.5 145.5t40 114.5t51.5 93t65 79q59 59 147.5 95t203.5 36q72 0 140.5 -22.5t122.5 -67.5t87 -113.5t33 -160.5q0 -51 -7.5 -105.5t-15.5 -93.5q-14 -82 -32.5 -145.5t-41 -114.5t-51.5 -93t-65 -79q-59 -59 -147.5 -95 t-203.5 -36q-72 0 -140 22.5t-122.5 67.5t-87.5 113.5t-33 160.5zM322 1440q59 55 113 83.5t130 28.5q59 0 97 -13t71 -30q29 -16 54.5 -24t54.5 -8q43 0 73.5 18t53.5 41l110 -147q-59 -55 -113.5 -84t-129.5 -29q-59 0 -97.5 13.5t-70.5 29.5q-29 16 -54.5 24.5t-54.5 8.5 q-43 0 -73.5 -18.5t-53.5 -41.5zM379 391q0 -53 24.5 -84t73.5 -31q61 0 98 37q35 33 55.5 92.5t37.5 145.5q16 82 19 116t3 44q0 53 -24.5 83.5t-73.5 30.5q-61 0 -98 -37q-35 -33 -55.5 -92t-37.5 -145q-16 -82 -19 -116t-3 -44z" />
<glyph unicode="&#xf6;" horiz-adv-x="1069" d="M61 352q0 51 7.5 105.5t15.5 93.5q16 82 33.5 145.5t40 114.5t51.5 93t65 79q59 59 147.5 95t203.5 36q72 0 140.5 -22.5t122.5 -67.5t87 -113.5t33 -160.5q0 -51 -7.5 -105.5t-15.5 -93.5q-14 -82 -32.5 -145.5t-41 -114.5t-51.5 -93t-65 -79q-59 -59 -147.5 -95 t-203.5 -36q-72 0 -140 22.5t-122.5 67.5t-87.5 113.5t-33 160.5zM311 1384q0 66 45 111t111 45t111 -45t45 -111t-45.5 -110.5t-110.5 -44.5q-66 0 -111 45t-45 110zM379 391q0 -53 24.5 -84t73.5 -31q61 0 98 37q35 33 55.5 92.5t37.5 145.5q16 82 19 116t3 44 q0 53 -24.5 83.5t-73.5 30.5q-61 0 -98 -37q-35 -33 -55.5 -92t-37.5 -145q-16 -82 -19 -116t-3 -44zM768 1384q0 66 45 111t111 45t110.5 -45t44.5 -111t-45 -110.5t-110 -44.5q-66 0 -111 45t-45 110z" />
<glyph unicode="&#xf7;" d="M68 455l59 299h915l-59 -299h-915zM274 158q0 43 15.5 79.5t43 64.5t64.5 44t80 16t80 -16t64.5 -44t44 -64.5t16.5 -79.5t-16.5 -80t-44 -64.5t-64.5 -44t-80 -16.5t-80 16.5t-64.5 44t-43 64.5t-15.5 80zM430 1051q0 43 15.5 79.5t43 64.5t64.5 44t80 16t80 -16 t64.5 -44t44 -64.5t16.5 -79.5t-16.5 -80t-44 -64.5t-64.5 -44t-80 -16.5t-80 16.5t-64.5 44t-43 64.5t-15.5 80z" />
<glyph unicode="&#xf8;" horiz-adv-x="1077" d="M-33 -90l166 221q-33 43 -51.5 98.5t-18.5 122.5q0 51 7.5 105.5t15.5 93.5q16 82 33.5 145.5t40 114.5t51.5 93t65 79q59 59 149.5 95t205.5 36q111 0 207 -51l94 129h180l-164 -221q33 -43 51.5 -97.5t18.5 -123.5q0 -51 -7 -105.5t-16 -93.5q-14 -82 -32.5 -145.5 t-41 -114.5t-51 -93t-65.5 -79q-59 -59 -149.5 -95t-204.5 -36q-53 0 -109.5 12t-97.5 39l-94 -129h-183zM383 430l279 377q-25 18 -64 18q-86 0 -127 -70.5t-68 -203.5q-8 -41 -12 -71.5t-8 -49.5zM420 295q25 -18 63 -19q86 0 127 71t68 204q8 41 13 72.5t7 48.5z" />
<glyph unicode="&#xf9;" horiz-adv-x="1126" d="M70 291q0 35 4 66.5t10 60.5l137 684h320l-133 -666q-6 -27 -7 -55q0 -55 31 -80t62 -25q55 0 103 34t67 126l133 666h319l-219 -1102h-305l18 96q-53 -53 -125.5 -80.5t-144.5 -27.5q-41 0 -88 15t-88 50t-67.5 93.5t-26.5 144.5zM451 1608h319l21 -363h-187z" />
<glyph unicode="&#xfa;" horiz-adv-x="1126" d="M70 291q0 35 4 66.5t10 60.5l137 684h320l-133 -666q-6 -27 -7 -55q0 -55 31 -80t62 -25q55 0 103 34t67 126l133 666h319l-219 -1102h-305l18 96q-53 -53 -125.5 -80.5t-144.5 -27.5q-41 0 -88 15t-88 50t-67.5 93.5t-26.5 144.5zM569 1245l166 363h326l-297 -363h-195z " />
<glyph unicode="&#xfb;" horiz-adv-x="1126" d="M70 291q0 35 4 66.5t10 60.5l137 684h320l-133 -666q-6 -27 -7 -55q0 -55 31 -80t62 -25q55 0 103 34t67 126l133 666h319l-219 -1102h-305l18 96q-53 -53 -125.5 -80.5t-144.5 -27.5q-41 0 -88 15t-88 50t-67.5 93.5t-26.5 144.5zM295 1249l338 367h246l190 -367h-223 l-115 178l-190 -178h-246z" />
<glyph unicode="&#xfc;" horiz-adv-x="1126" d="M70 291q0 35 4 66.5t10 60.5l137 684h320l-133 -666q-6 -27 -7 -55q0 -55 31 -80t62 -25q55 0 103 34t67 126l133 666h319l-219 -1102h-305l18 96q-53 -53 -125.5 -80.5t-144.5 -27.5q-41 0 -88 15t-88 50t-67.5 93.5t-26.5 144.5zM328 1384q0 66 45 111t110 45 q66 0 111 -45t45 -111t-45 -110.5t-111 -44.5t-110.5 45t-44.5 110zM784 1384q0 66 45 111t111 45t111 -45t45 -111t-45 -110.5t-111 -44.5t-111 45t-45 110z" />
<glyph unicode="&#xfd;" horiz-adv-x="999" d="M-31 -369l60 291h65q45 0 72 25.5t51 72.5l47 89l-153 993h315l61 -615l297 615h336l-663 -1233q-16 -29 -39 -63.5t-51 -63.5q-59 -59 -126 -85t-153 -26h-119zM514 1245l166 363h326l-297 -363h-195z" />
<glyph unicode="&#xfe;" horiz-adv-x="1110" d="M-57 -356l362 1814h320l-86 -428q33 29 93 56.5t146 27.5t141.5 -30.5t87 -74.5t44 -93.5t12.5 -86.5q0 -18 -1 -39.5t-4 -52t-11.5 -76t-20.5 -110.5q-37 -186 -72.5 -292.5t-95.5 -166.5q-63 -63 -132 -83.5t-138 -20.5q-92 0 -149.5 28.5t-86.5 65.5l-90 -438h-319z M420 385q0 -12 2 -30.5t11 -36t28.5 -30t54.5 -12.5q90 0 127 68t64 207q8 39 15 87t7 79q0 12 -2 30.5t-11 36t-28.5 29.5t-54.5 12q-88 0 -125 -67.5t-66 -206.5q-8 -39 -15 -87t-7 -79z" />
<glyph unicode="&#xff;" horiz-adv-x="999" d="M-31 -369l60 291h65q45 0 72 25.5t51 72.5l47 89l-153 993h315l61 -615l297 615h336l-663 -1233q-16 -29 -39 -63.5t-51 -63.5q-59 -59 -126 -85t-153 -26h-119zM283 1384q0 66 45 111t110 45q66 0 111 -45t45 -111t-45 -110.5t-111 -44.5t-110.5 45t-44.5 110zM739 1384 q0 66 45 111t111 45t111 -45t45 -111t-45 -110.5t-111 -44.5t-111 45t-45 110z" />
<glyph unicode="&#x152;" horiz-adv-x="1857" d="M90 414q0 104 43 315q18 96 37.5 178t44.5 152.5t58.5 131t84.5 112.5q96 96 209 131.5t201 35.5q76 0 137.5 -24.5t93.5 -65.5l15 78h919l-59 -301h-602l-53 -270h516l-62 -301h-514l-57 -285h608l-59 -301h-910l15 78q-39 -41 -89.5 -65.5t-134.5 -24.5 q-92 0 -172.5 30.5t-141 87t-94.5 135t-34 173.5zM432 444q0 -74 39 -115.5t104 -41.5q43 0 81 20.5t67 48.5q16 18 30.5 44t29 68t29.5 105.5t36 155.5q18 86 29.5 162t11.5 123q0 74 -39 115.5t-105 41.5q-43 0 -80.5 -20.5t-66.5 -48.5q-16 -18 -30.5 -44t-29 -68 t-29.5 -105.5t-36 -155.5q-18 -86 -29.5 -161.5t-11.5 -123.5z" />
<glyph unicode="&#x153;" horiz-adv-x="1685" d="M61 352q0 51 7.5 105.5t15.5 93.5q16 82 33.5 145.5t40 114.5t51.5 93t65 79q59 59 147.5 95t203.5 36q78 0 150.5 -26.5t127.5 -79.5q63 49 142 77.5t174 28.5q88 0 162.5 -26.5t130 -76.5t87 -125t31.5 -173q0 -63 -10 -131t-27 -133h-635q-2 -16 -3 -25.5t-1 -20.5 q0 -66 40 -106.5t122 -40.5q70 0 127 26.5t109 75.5l159 -208q-84 -80 -197.5 -121t-236.5 -41q-76 0 -161 23.5t-150 82.5q-59 -47 -140 -76.5t-182 -29.5q-72 0 -140 22.5t-122.5 67.5t-87.5 113.5t-33 160.5zM379 391q0 -53 24.5 -84t73.5 -31q61 0 98 37 q35 33 55.5 92.5t37.5 145.5q16 82 19 116t3 44q0 53 -24.5 83.5t-73.5 30.5q-61 0 -98 -37q-35 -33 -55.5 -92t-37.5 -145q-16 -82 -19 -116t-3 -44zM999 659h322q4 12 5 28t1 26q0 63 -31.5 101t-95.5 38q-63 0 -116.5 -43t-84.5 -150z" />
<glyph unicode="&#x178;" horiz-adv-x="1198" d="M168 1458h364l134 -545l329 545h375l-590 -874l-116 -584h-340l118 594zM410 1737q0 66 45 110.5t110 44.5q66 0 111 -44.5t45 -110.5t-45 -111t-111 -45t-110.5 45t-44.5 111zM866 1737q0 66 45 110.5t111 44.5t111 -44.5t45 -110.5t-45.5 -111t-110.5 -45 q-66 0 -111 45t-45 111z" />
<glyph unicode="&#x2c6;" horiz-adv-x="972" d="M242 1249l338 367h245l191 -367h-223l-115 178l-191 -178h-245z" />
<glyph unicode="&#x2dc;" horiz-adv-x="972" d="M283 1444q59 55 113.5 83.5t129.5 28.5q59 0 97.5 -13t70.5 -30q29 -16 54.5 -24t54.5 -8q43 0 73.5 18.5t53.5 40.5l110 -147q-59 -55 -113.5 -84t-129.5 -29q-59 0 -97 13.5t-71 29.5q-29 16 -54.5 24.5t-54.5 8.5q-43 0 -73.5 -18.5t-53.5 -41.5z" />
<glyph unicode="&#x2000;" horiz-adv-x="1043" />
<glyph unicode="&#x2001;" horiz-adv-x="2087" />
<glyph unicode="&#x2002;" horiz-adv-x="1043" />
<glyph unicode="&#x2003;" horiz-adv-x="2087" />
<glyph unicode="&#x2004;" horiz-adv-x="695" />
<glyph unicode="&#x2005;" horiz-adv-x="521" />
<glyph unicode="&#x2006;" horiz-adv-x="347" />
<glyph unicode="&#x2007;" horiz-adv-x="347" />
<glyph unicode="&#x2008;" horiz-adv-x="260" />
<glyph unicode="&#x2009;" horiz-adv-x="417" />
<glyph unicode="&#x200a;" horiz-adv-x="115" />
<glyph unicode="&#x2010;" horiz-adv-x="829" d="M80 455l59 299h639l-59 -299h-639z" />
<glyph unicode="&#x2011;" horiz-adv-x="829" d="M80 455l59 299h639l-59 -299h-639z" />
<glyph unicode="&#x2012;" horiz-adv-x="829" d="M80 455l59 299h639l-59 -299h-639z" />
<glyph unicode="&#x2013;" d="M80 455l59 299h891l-59 -299h-891z" />
<glyph unicode="&#x2014;" horiz-adv-x="2125" d="M80 459l61 307h1938l-62 -307h-1937z" />
<glyph unicode="&#x2018;" horiz-adv-x="538" d="M236 1159l59 299l369 246l-109 -545h-319z" />
<glyph unicode="&#x2019;" horiz-adv-x="538" d="M186 915l109 543h319l-59 -301z" />
<glyph unicode="&#x201a;" horiz-adv-x="538" d="M-43 -242l109 543h317l-59 -301z" />
<glyph unicode="&#x201c;" horiz-adv-x="993" d="M236 1159l59 299l367 246l-109 -545h-317zM690 1159l60 299l368 246l-110 -545h-318z" />
<glyph unicode="&#x201d;" horiz-adv-x="993" d="M186 915l109 543h317l-59 -301zM641 915l109 543h319l-61 -301z" />
<glyph unicode="&#x201e;" horiz-adv-x="993" d="M-43 -242l109 543h315l-59 -301zM410 -242l108 543h320l-62 -301z" />
<glyph unicode="&#x2022;" horiz-adv-x="915" d="M174 684q0 70 23.5 127t64.5 99t98.5 64.5t126.5 22.5q70 0 127.5 -22.5t99.5 -64.5t64.5 -99t22.5 -127t-22.5 -127t-64.5 -98t-99.5 -64.5t-127.5 -23.5t-127 23.5t-98 64.5t-64.5 98t-23.5 127z" />
<glyph unicode="&#x2026;" horiz-adv-x="1748" d="M29 199q0 43 15 79.5t43 64.5t64.5 44t79.5 16t80 -16t64.5 -44t44 -64.5t16.5 -79.5t-16.5 -80t-44 -64.5t-64.5 -44t-80 -16.5t-79.5 16.5t-64.5 44t-43 64.5t-15 80zM604 199q0 43 15.5 79.5t43 64.5t64.5 44t80 16t80 -16t64.5 -44t44 -64.5t16.5 -79.5t-16.5 -80 t-44 -64.5t-64.5 -44t-80 -16.5t-80 16.5t-64.5 44t-43 64.5t-15.5 80zM1180 199q0 43 15 79.5t43 64.5t64.5 44t79.5 16t80 -16t64.5 -44t44 -64.5t16.5 -79.5t-16.5 -80t-44 -64.5t-64.5 -44t-80 -16.5t-79.5 16.5t-64.5 44t-43 64.5t-15 80z" />
<glyph unicode="&#x202f;" horiz-adv-x="417" />
<glyph unicode="&#x2039;" horiz-adv-x="706" d="M66 573l641 547l-82 -407l-195 -166l127 -168l-70 -361z" />
<glyph unicode="&#x203a;" horiz-adv-x="706" d="M14 18l82 408l195 166l-127 168l69 360l422 -555z" />
<glyph unicode="&#x205f;" horiz-adv-x="521" />
<glyph unicode="&#x20ac;" horiz-adv-x="1191" d="M59 471l37 197h137l27 127h-139l37 196h145q29 111 64.5 180.5t97.5 131.5q92 92 203.5 129.5t220.5 37.5q76 0 134 -15t102 -39.5t77 -56.5t58 -65l-254 -215q-37 55 -74 73.5t-76 18.5q-80 0 -135 -55q-29 -29 -44 -60.5t-26 -64.5h240l-39 -196h-252l-27 -127h256 l-36 -197h-246q0 -10 -1 -17.5t-1 -15.5q0 -59 32.5 -105t116.5 -46q63 0 107.5 28.5t72.5 63.5l195 -240q-57 -59 -154.5 -105t-232.5 -46q-125 0 -215 37.5t-148.5 98t-87 137.5t-28.5 157v25.5t2 27.5h-146z" />
<glyph unicode="&#x2122;" horiz-adv-x="1892" d="M240 1255l41 203h632l-39 -203h-200l-135 -671h-226l136 671h-209zM862 584l172 874h223l142 -430l317 430h232l-172 -874h-230l90 448l-182 -256h-192l-82 256l-90 -448h-228z" />
<glyph unicode="&#xe000;" horiz-adv-x="1105" d="M0 0v1106h1106v-1106h-1106z" />
<glyph unicode="&#xfb01;" horiz-adv-x="1228" d="M47 0l162 813h-96l49 246h96l23 108q14 66 40.5 123.5t72.5 99.5t111.5 66.5t156.5 24.5h174l-54 -269h-100q-74 0 -90 -82l-14 -71h174l-50 -246h-174l-161 -813h-320zM682 0l211 1059h319l-211 -1059h-319zM909 1354q0 41 15.5 75.5t42 61.5t62.5 42t75 15 q41 0 75.5 -15t61.5 -42t42 -61.5t15 -75.5q0 -39 -15 -75t-42 -62.5t-61.5 -42t-75.5 -15.5q-39 0 -75 15.5t-62.5 42t-42 62.5t-15.5 75z" />
<glyph unicode="&#xfb02;" horiz-adv-x="1349" d="M47 0l162 809h-96l49 246h96l23 112q12 66 39.5 123.5t72.5 99.5t111.5 66.5t157.5 24.5h174l-54 -269h-100q-74 0 -90 -82l-14 -75h174l-50 -246h-174l-161 -809h-320zM743 256q0 49 9 90l221 1112h319l-221 -1110l-3 -15t-1 -16q0 -47 59 -47h117l-55 -270h-158 q-137 0 -212 73.5t-75 182.5z" />
</font>
</defs>
</svg>
